<?xml version="1.0" encoding="utf-8"?>
<!-- Generator: Adobe Illustrator 24.3.0, SVG Export Plug-In . SVG Version: 6.00 Build 0)  -->
<svg version="1.1" xmlns="http://www.w3.org/2000/svg" xmlns:xlink="http://www.w3.org/1999/xlink" x="0px" y="0px"
	 viewBox="0 0 948.77 470.3" style="enable-background:new 0 0 948.77 470.3;" xml:space="preserve">
<style type="text/css">
	.st0{fill:#FFFFFF;}
	.st1{fill:#006BB1;}
	.st2{fill:#FFFFFF;stroke:#FFFFFF;stroke-width:10;stroke-miterlimit:10;}
	.st3{fill:#006FBA;}
	.st4{fill-rule:evenodd;clip-rule:evenodd;fill:#FFFFFF;}
	.st5{clip-path:url(#XMLID_2_);}
	.st6{fill:#FFFFFF;stroke:#FFFFFF;stroke-width:0.5;stroke-miterlimit:10;}
	.st7{fill:#006BB1;stroke:#FFFFFF;stroke-width:0.5;stroke-miterlimit:10;}
	.st8{fill:#FFAA55;}
	.st9{opacity:0.72;}
	.st10{fill:#2E58A6;}
	.st11{opacity:0.83;fill:url(#SVGID_3_);}
	.st12{opacity:0.83;fill:url(#SVGID_4_);}
	.st13{opacity:0.83;fill:url(#SVGID_5_);}
	.st14{opacity:0.83;fill:url(#SVGID_6_);}
	.st15{opacity:0.83;fill:url(#SVGID_7_);}
	.st16{opacity:0.83;fill:url(#SVGID_8_);}
	.st17{fill:#F44F11;}
	.st18{fill:#3B4CA0;}
</style>
<g id="Capa_1">
	<g>
		<path class="st0" d="M740.93,224.25c1.95-2.18,2.02-2.97,0.48-5.28c-4.12-6.2-7.92-12.6-12.21-18.7
			c-7.95-11.3-17.63-20.71-29.65-27.61c-1.69-0.97-3.5-1.73-5.26-2.57c-0.69-0.32-1.09-0.72-0.97-1.57
			c0.31-2.21,0.16-4.43-0.03-6.65c-1.05-12.39-7.07-22.32-15.32-31.14c-2.58-2.75-5.53-5.1-8.44-7.5
			c-6.72-5.55-13.41-11.12-20.15-16.65c-2-1.64-4.1-1.18-5.29,1.1c-3.57,6.84-7.15,13.68-10.67,20.55
			c-3.67,7.15-7.28,14.33-10.91,21.5c-1.07,2.12-1.07,2.14-3.33,1.19c-6.25-2.62-12.78-3.76-19.53-3.84
			c-5.31-0.06-10.5,0.76-15.56,2.34c-0.95,0.3-1.61,0.39-1.53-0.94c0.06-1,0.01-2,0.01-3c0.01-1.68-0.07-3.35-0.25-5.03
			c-1.23-10.84-5.54-20.17-13.66-27.55c-7.86-7.14-17.17-10.28-27.79-9.48c-12.29,0.93-21.92,6.86-29.34,16.32
			c-7.34,9.35-10.52,20.28-10.76,32.1c-0.04,2.1,0.29,4.16,0.51,6.23c0.11,1-0.18,1.55-1.31,1.54c-0.95-0.01-1.9,0.15-2.85,0.22
			c-7.46,0.59-14.77,1.94-21.85,4.39c-9.16,3.17-17.74,7.46-25.27,13.66c-0.81,0.67-1.63,0.82-2.65,0.66
			c-3.82-0.61-7.64-0.86-11.53-0.5c-7.23,0.67-14.12,2.37-20.56,5.82c-1.99,1.07-3.79,2.53-6.06,3.06
			c-3.59,0.84-7.22,1.42-10.91,1.52c-5.14,0.14-10.25-0.12-15.35-0.79c-8.49-1.12-16.86-2.69-24.89-5.78
			c-10.73-4.12-21.11-9.07-31.71-13.5c-1.49-0.62-2.16-1.54-2.58-2.99c-2.21-7.63-5.26-14.85-9.85-21.43
			c-5.3-7.59-12-13.54-20.35-17.42c-12.01-5.59-24.66-8.18-37.97-7.34c-9.93,0.63-19.46,2.95-28.74,6.4
			c-6.37,2.37-12.12,6-18.15,9.05c-1.7,0.86-2.42,2.05-2.42,3.99c0.03,59.17,0.02,118.33,0.02,177.5c0,3.02,0.97,3.97,4.02,3.97
			c19.31,0,38.62-0.01,57.93,0.01c2.32,0,4.64-0.12,6.93-0.41c11.09-1.39,21.34-5.09,30.59-11.42c0.78-0.54,1.27-0.5,1.99,0.11
			c6.02,5.17,12.88,8.78,20.52,10.92c6.26,1.75,12.64,2.63,19.13,1.87c5.63-0.66,11.25-1.42,16.95-1.09c0.54,0.03,1.09,0,1.64,0
			c19.72,0,39.44,0,59.16,0c1.88,0,1.97,0.09,2.28,1.92c0.4,2.42,0.93,4.82,1.6,7.18c2.88,10.25,8.25,18.96,16.42,25.79
			c9.65,8.07,21.04,11.6,33.49,11.92c4.14,0.11,8.25-0.39,12.33-1.07c10.16-1.69,19.16-5.93,26.89-12.68
			c9.55-8.35,15.23-19.18,19.1-31.06c0.65-2,0.59-2.02,2.7-2.02c19.4,0,38.8,0,58.2,0c2.41,0,4.8-0.03,7.21-0.23
			c6.74-0.56,13.13-2.39,19.25-5.16c5.43-2.47,10.62-5.37,15.03-9.49c0.65-0.61,1.24-0.88,2.11-0.18c4.64,3.7,9.74,6.63,15.16,9.05
			c7.98,3.55,16.31,5.63,25.03,5.95c8.02,0.3,15.84-0.78,23.32-3.9c8.99-3.75,16.24-9.56,21.37-17.87
			c4.51-7.31,7.08-15.27,7.83-23.84c1.04-11.79-0.6-23.09-6.09-33.69c-0.64-1.23-0.4-2.08,0.51-3.02
			C733.08,233.42,736.9,228.75,740.93,224.25z M721.67,236.56c-1.1,1.27-1.27,2.71-0.39,4.16c5.78,9.6,7.67,20.11,7.06,31.13
			c-0.49,8.76-2.8,17.02-7.91,24.3c-5.55,7.92-13.01,13.25-22.35,15.76c-10.36,2.79-20.69,2.2-30.94-0.72
			c-9.11-2.59-17.07-7.31-24.34-13.28c-1.57-1.29-3.07-1.24-4.59,0.19c-8.09,7.64-17.56,12.64-28.52,14.75
			c-3.4,0.65-6.84,0.93-10.29,0.94c-20.81,0.04-41.62,0.02-62.43,0.02c-3.55,0-4.1,0.45-5.01,3.84
			c-2.65,9.92-6.96,19.01-13.78,26.76c-7.36,8.37-16.73,13.2-27.64,15.19c-3.32,0.6-6.67,1.04-10.01,1
			c-12.33-0.15-23.55-3.39-32.77-12.11c-8.72-8.25-13.15-18.52-14.63-30.24c-0.07-0.59-0.15-1.17-0.25-1.75
			c-0.28-1.61-1.36-2.57-2.97-2.66c-0.54-0.03-1.09-0.01-1.64-0.01c-23.99,0-47.98,0-71.97-0.01c-1.55,0-3.07,0.2-4.6,0.45
			c-14.54,2.36-27.67-0.84-39.24-10.06c-1.06-0.85-2.04-1.81-3.03-2.74c-1.57-1.48-2.81-1.57-4.61-0.32
			c-1.83,1.27-3.64,2.56-5.51,3.76c-7.41,4.74-15.59,7.27-24.26,8.39c-3.56,0.46-7.14,0.56-10.74,0.55
			c-16.54-0.02-33.08-0.01-49.61-0.01c-2.36,0-2.36,0-2.36-2.32c0-28.29,0-56.58,0-84.87c0-28.25,0.02-56.49-0.03-84.74
			c0-1.65,0.51-2.51,1.99-3.22c5.97-2.88,11.72-6.19,18.03-8.35c6.35-2.18,12.83-3.72,19.48-4.45c11.23-1.22,22.22-0.06,32.87,3.76
			c12.41,4.45,21.9,12.27,27.83,24.21c2.35,4.74,4.46,9.56,5.72,14.69c0.61,2.51,1.87,4.01,4.31,5.08
			c10.86,4.76,21.73,9.48,32.68,14c7.31,3.01,15.02,4.57,22.81,5.75c6.47,0.98,12.98,1.56,19.54,1.37c4.78-0.14,9.5-0.68,14.13-1.97
			c1.78-0.5,3.33-1.4,4.9-2.33c5.97-3.51,12.44-5.41,19.33-6.08c4.31-0.41,8.52-0.13,12.7,0.9c1.21,0.3,2.18,0.05,3.15-0.76
			c7.69-6.41,16.24-11.3,25.78-14.36c7.07-2.27,14.33-3.65,21.78-4.03c1.77-0.09,3.53-0.21,5.3-0.22c2.19-0.01,3.3-1.11,3.45-3.33
			c0.11-1.7-0.43-3.32-0.61-4.99c-1.4-12.96,1.49-24.74,9.8-34.93c6.33-7.77,14.51-12.3,24.59-12.88c10.14-0.59,18.65,3,25.38,10.68
			c6.3,7.18,8.84,15.7,9.01,25.07c0.05,2.64-0.07,5.26-0.49,7.87c-0.11,0.66-0.12,1.37-0.03,2.03c0.29,2.16,2.43,3.18,4.75,2.16
			c2.92-1.28,5.91-2.35,9.02-3.05c10.25-2.3,20.12-1.1,29.62,3.33c0.62,0.29,1.22,0.61,1.83,0.91c2.3,1.13,4.07,0.51,5.11-1.83
			c1.91-4.27,3.96-8.47,6.11-12.63c5.05-9.76,10.13-19.5,15.15-29.27c0.6-1.17,1.08-1.18,2.01-0.4c5.08,4.25,10.17,8.5,15.3,12.69
			c3.06,2.5,6.13,4.98,8.87,7.83c6.82,7.1,11.74,15.22,13.26,25.11c0.5,3.29,0.55,6.6,0.04,9.9c-0.46,2.94,0.09,3.75,2.82,4.84
			c6.72,2.68,12.77,6.44,18.32,11.1c7.02,5.9,12.91,12.77,17.96,20.35c2.97,4.45,5.82,8.99,8.75,13.47
			c0.75,1.14,0.26,1.87-0.48,2.61c-2.14,2.17-4.14,4.45-6.14,6.74C725.94,231.73,723.78,234.13,721.67,236.56z"/>
		<path class="st0" d="M303.89,233.3c-2.73-7.58-7.06-13.99-13.81-18.59c-0.84-0.57-0.77-0.99,0.06-1.46
			c4.97-2.85,7.65-7.36,9.14-12.7c1.64-5.87,1.56-11.85,0.84-17.83c-0.93-7.67-3.07-14.92-7.81-21.21
			c-4.66-6.18-10.63-10.48-18.02-12.77c-5.62-1.73-11.41-2.02-17.25-1.96c-7.25,0.07-14.1,1.78-20.7,4.72
			c-1.57,0.7-1.98,1.61-1.97,3.22c0.05,22.57,0.03,45.14,0.03,67.7c0,22.75,0,45.5,0,68.25c0,1.87,0.04,1.92,1.9,1.92
			c10.63,0,21.26,0,31.89,0c5.15,0,10.12-1,14.92-2.81c11.73-4.42,18.33-13.33,21.63-25.04c1.72-6.11,1.9-12.37,1.62-18.64
			C306.15,241.73,305.38,237.43,303.89,233.3z M257.83,186.44c0-4.26,0-8.53,0-12.79c0-1.67,0.09-1.79,1.79-1.75
			c2.85,0.07,5.72,0.07,8.48,0.99c2.63,0.87,4.74,2.52,5.89,4.97c2.7,5.74,3.1,11.72,0.77,17.69c-1.74,4.48-5.67,5.72-9.37,5.64
			c-1.95-0.04-3.9-0.17-5.85-0.13c-1.24,0.02-1.68-0.45-1.67-1.68c0.05-4.31,0.02-8.62,0.02-12.93
			C257.88,186.44,257.85,186.44,257.83,186.44z M279.74,251.82c-1.26,5.89-5.11,8.85-11.72,9.11c-2.72,0.11-5.45,0-8.18,0.04
			c-1.08,0.01-1.43-0.48-1.42-1.5c0.03-3.59,0.01-7.17,0.01-10.76c0.15-6.36-0.34-12.71-0.28-19.06c0.02-1.76,0.11-1.91,1.83-1.89
			c2.81,0.03,5.62-0.06,8.44,0.16c5.69,0.44,9.46,4.22,10.94,9.35C280.76,242.08,280.79,246.96,279.74,251.82z"/>
		<path class="st0" d="M515.53,223.32c-0.09-4.4-0.01-8.81-0.01-13.21c0-6.67-0.02-13.35,0.02-20.02c0.01-1.17-0.41-1.67-1.56-1.94
			c-4.7-1.08-9.43-1.19-14.21-0.78c-8.56,0.74-16.77,2.76-24.3,6.97c-14.6,8.16-23.58,20.54-27.16,36.84
			c-2.22,10.12-2.3,20.18,1.33,30.04c1.67,4.54,4.2,8.52,8,11.64c3.09,2.54,6.56,4.19,10.51,4.83c0.42,0.07,1.03-0.02,1.18,0.48
			c0.12,0.43-0.43,0.63-0.7,0.91c-2.84,2.96-5.34,6.17-7.54,9.63c-6.31,9.91-8.04,20.65-5.26,31.98
			c2.11,8.59,7.27,14.71,15.97,17.43c4.01,1.25,8.1,1.5,12.25,1.08c7.52-0.76,14.03-3.64,19.11-9.32c4.65-5.2,7.17-11.53,9.07-18.11
			c2.31-8.02,3.3-16.26,3.52-24.59c0.21-7.94-0.14-15.87-0.06-23.81C515.82,250.01,515.79,236.66,515.53,223.32z M471.95,248.22
			c-0.63-6.48-0.61-12.96,0.76-19.36c1.05-4.9,2.79-9.5,6.42-13.14c2.84-2.84,6.32-4.14,10.33-4.15c1.24,0,1.76,0.4,1.75,1.74
			c-0.06,5.9-0.03,11.8-0.03,17.7c0,5.67,0.05,11.35-0.02,17.02c-0.04,3.5-0.73,6.85-2.82,9.78c-2.18,3.06-5.81,4.48-9.45,3.64
			c-2.32-0.54-3.73-2.14-4.78-4.14C472.64,254.46,472.25,251.33,471.95,248.22z M490.42,306.46c-0.41,1.92-1.1,3.76-2.27,5.35
			c-1.88,2.55-4.57,3.06-7.44,2.47c-2.69-0.55-4.15-2.57-4.66-5.14c-0.76-3.83-0.5-7.66,0.43-11.46c1.37-5.58,4.56-10.12,8.14-14.45
			c1.74-2.1,3.68-4.01,5.82-5.7c0.3-0.23,0.6-0.68,1.05-0.42c0.36,0.21,0.23,0.66,0.23,1.01c0.01,2.99,0.01,5.99,0.01,10.08
			C491.8,293.58,491.79,300.07,490.42,306.46z"/>
		<path class="st0" d="M590.76,244.61c4.91-0.27,9.76-0.94,14.42-2.64c10.11-3.7,16.31-10.87,18.8-21.27
			c1.32-5.51,1.52-11.11,1.15-16.77c-0.39-6.01-1.65-11.72-4.43-17.13c-5.45-10.58-17.84-14.21-27.44-11.19
			c-7.11,2.24-12.22,6.97-16.36,12.92c-4.5,6.46-7.21,13.74-9.26,21.26c-2.33,8.55-3.23,17.29-3.1,26.45
			c-0.08,3.79,0.18,7.86,0.51,11.93c0.65,8.06,2.13,15.92,5.24,23.42c2.2,5.31,5.12,10.11,9.57,13.87
			c7.19,6.08,15.63,7.95,24.72,6.93c7.15-0.8,13.33-4.01,18.69-8.81c0.85-0.76,1.06-1.56,0.8-2.66c-1.56-6.44-3.07-12.89-4.59-19.35
			c-0.59-2.49-0.58-2.51-2.49-0.8c-2.92,2.61-6.17,4.75-10.02,5.58c-7.6,1.64-13.65-0.78-16.55-8.77
			c-1.34-3.68-1.41-7.46-1.37-11.29C589.07,245.05,589.56,244.67,590.76,244.61z M588.59,220.76c0.48-4.15,1.04-8.28,2.41-12.26
			c0.96-2.78,2.2-5.36,4.4-7.41c3.71-3.47,8.57-2.24,10.06,2.6c0.4,1.31,0.58,2.66,0.52,3.84c0,6.36-3.48,11.09-9.72,13.41
			c-1.96,0.73-3.98,1.25-6.08,1.41C588.61,222.46,588.4,222.36,588.59,220.76z"/>
		<path class="st0" d="M381.65,282.7c-1.12-4.32-0.89-8.75-1.05-13.13c-0.28-7.3,0.15-14.61,0.2-21.92
			c0.07-9.89,0.4-19.78,0.03-29.68c-0.04-0.97-0.06-1.78-1.34-1.94c-7.43-0.9-14.61-2.86-21.68-5.25c-1.46-0.5-1.58-0.41-1.58,1.09
			c0.02,9.76,0.05,19.52-0.19,29.28c-0.18,7.58-0.04,15.17-0.01,22.75c0.01,1.62-0.3,3.16-0.89,4.65c-1.21,3.01-3.68,4.49-6.89,4.15
			c-3.54-0.38-6.05-2.91-6.94-7.03c-0.59-2.72-0.77-5.48-0.82-8.25c-0.28-15.89,0.37-31.78,0.23-47.67
			c-0.01-1.5-0.01-2.99-0.18-4.49c-0.1-0.85-0.45-1.29-1.22-1.59c-1.82-0.71-3.63-1.45-5.41-2.24c-5.11-2.25-10.21-4.54-15.32-6.8
			c-2.07-0.91-2.14-0.86-2.1,1.47c0.04,2.18,0.22,4.35,0.2,6.53c-0.04,6.08,0.06,12.16-0.15,18.25c-0.22,6.4-0.05,12.8-0.05,19.21
			c0.1,7.35-0.31,14.71,0.21,22.06c0.41,5.83,1.47,11.5,3.77,16.92c5.02,11.81,16.45,15.98,27.03,14.48
			c5.32-0.75,9.5-3.66,12.83-7.83c0.27-0.34,0.47-0.94,0.98-0.84c0.59,0.12,0.51,0.79,0.6,1.25c0.31,1.65,0.64,3.3,0.85,4.97
			c0.14,1.06,0.6,1.49,1.68,1.48c5.91-0.03,11.81-0.02,17.72,0c1.1,0,1.43-0.39,1.23-1.49C382.87,288.28,382.37,285.47,381.65,282.7
			z"/>
		<path class="st0" d="M701.38,208.69c-4.94-5.49-10.54-10.12-17.25-13.28c-4.16-1.96-8.53-2.93-13.09-1.72
			c-5.94,1.58-9.37,5.83-11.42,11.32c-2.36,6.33-2.76,12.9-2.16,19.59c0.89,9.95,5.16,17.99,13.15,24.09
			c3.22,2.45,6.6,4.67,9.8,7.13c3.48,2.67,5.47,6.03,4.61,10.6c-0.44,2.32-1.89,3.54-4.25,3.59c-1.96,0.04-3.76-0.55-5.5-1.37
			c-5.54-2.61-10.14-6.51-14.42-10.8c-0.85-0.86-1.14-0.76-1.44,0.34c-1.74,6.25-3.49,12.5-5.27,18.74
			c-0.28,0.98-0.08,1.73,0.65,2.45c2.58,2.58,5.34,4.93,8.49,6.78c8.38,4.92,17.34,7.47,27.11,5.85
			c6.49-1.08,11.57-4.31,14.55-10.44c2.33-4.8,2.93-9.88,2.77-15.11c-0.19-6.04-1.84-11.64-5.15-16.7
			c-3.52-5.4-8.33-9.56-13.33-13.5c-2.42-1.91-5.01-3.63-7.12-5.9c-2.16-2.33-4-4.85-3.87-8.45c-0.01-0.74,0.02-1.64,0.26-2.53
			c0.67-2.42,2.32-3.39,4.75-2.78c1.16,0.29,2.23,0.79,3.2,1.47c4.66,3.22,8.32,7.41,11.59,11.97c0.95,1.33,1.21,1.35,2.16,0.08
			c2.49-3.35,5.16-6.57,7.95-9.67c0.98-1.09,0.92-1.89,0.14-2.97C706.11,214.43,703.88,211.47,701.38,208.69z"/>
		<path class="st0" d="M553.5,177.48c-7.6,0.74-15.13,1.94-22.6,3.53c-0.92,0.19-1.3,0.6-1.29,1.55c0.01,3.45-0.11,6.9-0.17,10.34
			c-0.23,13.03-0.05,26.06-0.25,39.09c-0.25,16.3-0.02,32.6-0.36,48.9c0,3.32-0.01,6.63,0,9.95c0,1.67,0.08,1.77,1.8,1.73
			c1.63-0.04,3.26-0.2,4.89-0.22c5.4-0.08,10.81,0,16.21-0.24c1.23-0.05,1.66-0.43,1.67-1.67c0.04-5.22,0.01-10.44,0.18-15.66
			c0.27-8.48,0.01-16.98,0.29-25.47c0.27-8.3,0.02-16.61,0.26-24.92c0.26-9.21,0.03-18.43,0.31-27.64
			c0.13-4.36,0.04-8.72,0.08-13.08c0.02-1.68,0.14-3.35,0.19-5.03C554.74,177.83,554.46,177.39,553.5,177.48z"/>
		<path class="st0" d="M442.42,205.44c-0.18-0.02-0.36-0.04-0.54-0.04c-9.74-0.44-17.04,3.8-22.4,11.72
			c-1.37,2.02-2.35,4.25-3.34,6.57c-0.59-0.54-0.56-1.12-0.67-1.62c-0.5-2.21-0.99-4.43-1.44-6.65c-0.2-1.02-0.64-1.37-1.7-1.09
			c-2.19,0.59-4.41,1.08-6.62,1.61c-2.7,0.66-5.44,1.11-8.21,1.13c-1.41,0.01-1.76,0.54-1.76,1.86c0.03,23.97,0.02,47.95,0.03,71.92
			c0,1.67,0.08,1.74,1.8,1.74c7.27,0.01,14.54,0.01,21.81,0c1.75,0,1.81-0.07,1.8-1.88c0-4.86-0.03-9.72-0.02-14.57
			c0.01-4.36,0-8.72,0.12-13.07c0.16-5.94,0.31-11.89-0.04-17.83c-0.5-8.45,2.77-14.23,11.46-15.71c2.64-0.45,5.35-0.32,7.99,0.32
			c0.96,0.23,1.49,0.05,1.54-1.02c0.02-0.36,0.12-0.72,0.17-1.08c0.83-6.34,1.65-12.69,2.5-19.03
			C445.27,206.05,445.11,205.78,442.42,205.44z"/>
		<path class="st0" d="M542.67,130.94c-3.78,0.7-6.73,2.81-8.9,5.82c-4.67,6.47-5.77,13.71-3.79,21.36
			c0.91,3.51,2.89,6.46,6.61,7.54c4.99,1.44,9.39,0.03,12.97-3.57c4.24-4.27,6.06-9.59,6.03-15.56c0-5.17-1.12-8.99-3.84-12.19
			C549.39,131.54,546.37,130.26,542.67,130.94z"/>
		<path class="st0" d="M664.07,172.51c1.51-2.13,2.55-4.39,2.45-6.97c0.03-1.55-0.16-3-0.63-4.38c-1.63-4.78-4.47-8.78-8.06-12.28
			c-2.33-2.27-2.36-2.3-3.79,0.54c-5.09,10.09-9.99,20.27-14.64,30.57c-0.32,0.7-0.26,1.26,0.14,1.91c1.5,2.43,2.99,4.87,4.41,7.35
			c0.61,1.06,1.07,1.21,2.04,0.33c3.37-3.03,6.84-5.96,10.23-8.97C659.03,178.1,661.87,175.62,664.07,172.51z"/>
	</g>
	<g>
		<defs>
			<rect id="XMLID_6_" x="332.44" y="539.03" width="1920" height="1311.32"/>
		</defs>
		<use xlink:href="#XMLID_6_"  style="overflow:visible;fill:#006BB1;"/>
		<clipPath id="XMLID_2_">
			<use xlink:href="#XMLID_6_"  style="overflow:visible;"/>
		</clipPath>
		<use xlink:href="#XMLID_6_"  style="overflow:visible;fill:none;stroke:#FFFFFF;stroke-width:0.25;stroke-miterlimit:10;"/>
	</g>
</g>
<g id="Capa_2">
</g>
</svg>
