<?xml version="1.0" encoding="utf-8"?>
<!-- Generator: Adobe Illustrator 24.3.0, SVG Export Plug-In . SVG Version: 6.00 Build 0)  -->
<svg version="1.1" xmlns="http://www.w3.org/2000/svg" xmlns:xlink="http://www.w3.org/1999/xlink" x="0px" y="0px"
	 viewBox="0 0 948.77 470.3" style="enable-background:new 0 0 948.77 470.3;" xml:space="preserve">
<style type="text/css">
	.st0{fill:#FFFFFF;}
	.st1{fill:#006BB1;}
	.st2{fill:#FFFFFF;stroke:#FFFFFF;stroke-width:10;stroke-miterlimit:10;}
	.st3{fill:#006FBA;}
	.st4{fill-rule:evenodd;clip-rule:evenodd;fill:#FFFFFF;}
	.st5{clip-path:url(#XMLID_2_);}
	.st6{fill:#FFFFFF;stroke:#FFFFFF;stroke-width:0.5;stroke-miterlimit:10;}
	.st7{fill:#006BB1;stroke:#FFFFFF;stroke-width:0.5;stroke-miterlimit:10;}
	.st8{fill:#FFAA55;}
	.st9{opacity:0.72;}
	.st10{fill:#2E58A6;}
	.st11{opacity:0.83;fill:url(#SVGID_3_);}
	.st12{opacity:0.83;fill:url(#SVGID_4_);}
	.st13{opacity:0.83;fill:url(#SVGID_5_);}
	.st14{opacity:0.83;fill:url(#SVGID_6_);}
	.st15{opacity:0.83;fill:url(#SVGID_7_);}
	.st16{opacity:0.83;fill:url(#SVGID_8_);}
	.st17{fill:#F44F11;}
	.st18{fill:#3B4CA0;}
</style>
<g id="Capa_1">
	<g>
		<path class="st1" d="M741.25,224.24c1.96-2.18,2.02-2.97,0.48-5.28c-4.13-6.21-7.93-12.62-12.23-18.72
			c-7.96-11.31-17.65-20.74-29.69-27.64c-1.69-0.97-3.5-1.74-5.27-2.57c-0.69-0.32-1.09-0.72-0.97-1.57
			c0.31-2.22,0.16-4.43-0.03-6.66c-1.05-12.4-7.08-22.35-15.34-31.18c-2.58-2.76-5.54-5.11-8.45-7.51
			c-6.73-5.55-13.43-11.14-20.18-16.67c-2.01-1.64-4.1-1.18-5.29,1.1c-3.58,6.85-7.16,13.7-10.68,20.57
			c-3.67,7.16-7.29,14.35-10.92,21.53c-1.08,2.12-1.08,2.14-3.34,1.2c-6.25-2.62-12.8-3.77-19.55-3.84
			c-5.32-0.06-10.51,0.76-15.58,2.34c-0.95,0.3-1.61,0.39-1.53-0.94c0.06-1,0.01-2,0.01-3c0.01-1.68-0.07-3.36-0.26-5.03
			c-1.23-10.85-5.55-20.2-13.67-27.58c-7.87-7.15-17.2-10.29-27.82-9.49c-12.31,0.93-21.94,6.87-29.38,16.34
			c-7.35,9.36-10.53,20.3-10.77,32.14c-0.04,2.1,0.29,4.17,0.51,6.24c0.11,1-0.18,1.55-1.31,1.55c-0.95-0.01-1.9,0.15-2.85,0.23
			c-7.47,0.59-14.79,1.94-21.87,4.39c-9.18,3.17-17.77,7.47-25.3,13.68c-0.81,0.67-1.63,0.82-2.65,0.66
			c-3.82-0.61-7.65-0.86-11.54-0.5c-7.24,0.67-14.14,2.37-20.58,5.83c-1.99,1.07-3.79,2.54-6.06,3.07
			c-3.6,0.84-7.22,1.42-10.92,1.52c-5.14,0.14-10.27-0.12-15.37-0.79c-8.5-1.12-16.88-2.7-24.92-5.78
			c-10.75-4.13-21.14-9.08-31.75-13.51c-1.49-0.62-2.17-1.54-2.59-3c-2.21-7.64-5.27-14.87-9.86-21.45
			c-5.3-7.6-12.02-13.55-20.38-17.45c-12.02-5.6-24.69-8.19-38.02-7.35c-9.94,0.63-19.48,2.95-28.78,6.41
			c-6.38,2.37-12.13,6-18.17,9.06c-1.7,0.86-2.43,2.06-2.43,3.99c0.03,59.24,0.02,118.47,0.02,177.71c0,3.02,0.97,3.98,4.02,3.98
			c19.33,0,38.67-0.01,58,0.01c2.33,0,4.64-0.12,6.94-0.41c11.11-1.39,21.37-5.1,30.63-11.43c0.78-0.54,1.27-0.51,2,0.12
			c6.03,5.17,12.9,8.79,20.54,10.93c6.27,1.75,12.65,2.63,19.15,1.87c5.64-0.66,11.27-1.42,16.97-1.09c0.54,0.03,1.09,0,1.64,0
			c19.74,0,39.48,0,59.23,0c1.88,0,1.98,0.09,2.28,1.92c0.4,2.42,0.94,4.82,1.6,7.19c2.88,10.26,8.26,18.99,16.44,25.82
			c9.67,8.08,21.06,11.62,33.53,11.94c4.14,0.11,8.26-0.39,12.34-1.07c10.17-1.69,19.19-5.94,26.92-12.7
			c9.57-8.36,15.24-19.2,19.13-31.09c0.65-2,0.59-2.02,2.7-2.02c19.42,0,38.85,0,58.27,0c2.41,0,4.81-0.03,7.22-0.23
			c6.75-0.56,13.14-2.39,19.27-5.17c5.44-2.47,10.63-5.38,15.05-9.5c0.65-0.61,1.24-0.88,2.11-0.18c4.64,3.71,9.75,6.64,15.18,9.06
			c7.99,3.56,16.33,5.63,25.06,5.96c8.03,0.3,15.86-0.78,23.35-3.9c9-3.76,16.26-9.57,21.39-17.89c4.51-7.31,7.09-15.29,7.84-23.87
			c1.04-11.81-0.61-23.12-6.1-33.73c-0.64-1.23-0.4-2.08,0.51-3.02C733.39,233.42,737.22,228.74,741.25,224.24z M721.97,236.56
			c-1.11,1.27-1.27,2.71-0.39,4.17c5.79,9.62,7.68,20.14,7.06,31.17c-0.49,8.77-2.81,17.04-7.91,24.33
			c-5.56,7.93-13.03,13.27-22.38,15.78c-10.37,2.79-20.71,2.2-30.97-0.72c-9.12-2.6-17.09-7.32-24.37-13.3
			c-1.58-1.29-3.07-1.24-4.6,0.2c-8.1,7.65-17.58,12.66-28.55,14.77c-3.4,0.66-6.85,0.93-10.3,0.94
			c-20.83,0.04-41.67,0.02-62.5,0.02c-3.56,0-4.1,0.45-5.01,3.85c-2.65,9.93-6.97,19.03-13.79,26.8
			c-7.37,8.38-16.75,13.21-27.67,15.2c-3.32,0.61-6.68,1.05-10.02,1.01c-12.34-0.15-23.58-3.39-32.81-12.12
			c-8.73-8.26-13.16-18.54-14.65-30.28c-0.07-0.59-0.15-1.17-0.25-1.75c-0.28-1.61-1.36-2.58-2.98-2.66
			c-0.54-0.03-1.09-0.01-1.64-0.01c-24.02,0-48.04,0-72.05-0.01c-1.55,0-3.07,0.2-4.6,0.45c-14.55,2.36-27.7-0.84-39.28-10.07
			c-1.06-0.85-2.04-1.81-3.03-2.75c-1.57-1.49-2.82-1.57-4.61-0.32c-1.83,1.27-3.64,2.56-5.52,3.76c-7.42,4.75-15.61,7.28-24.29,8.4
			c-3.57,0.46-7.15,0.56-10.75,0.55c-16.56-0.02-33.12-0.01-49.67-0.01c-2.36,0-2.36,0-2.36-2.32c0-28.33,0-56.65,0-84.97
			c0-28.28,0.02-56.56-0.03-84.84c0-1.65,0.51-2.51,1.99-3.23c5.97-2.89,11.73-6.19,18.05-8.36c6.35-2.18,12.84-3.73,19.51-4.45
			c11.24-1.22,22.25-0.07,32.91,3.76c12.42,4.46,21.92,12.29,27.86,24.24c2.35,4.74,4.47,9.57,5.72,14.71
			c0.61,2.52,1.87,4.02,4.31,5.09c10.87,4.76,21.75,9.49,32.72,14.01c7.32,3.02,15.04,4.57,22.83,5.76c6.48,0.98,13,1.57,19.56,1.37
			c4.78-0.14,9.52-0.68,14.15-1.98c1.78-0.5,3.34-1.41,4.91-2.33c5.98-3.52,12.45-5.42,19.35-6.08c4.31-0.41,8.53-0.13,12.72,0.9
			c1.21,0.3,2.19,0.05,3.15-0.76c7.7-6.42,16.26-11.31,25.81-14.38c7.08-2.28,14.35-3.66,21.8-4.03c1.77-0.09,3.54-0.21,5.31-0.22
			c2.2-0.01,3.31-1.11,3.46-3.34c0.11-1.7-0.43-3.33-0.61-5c-1.4-12.97,1.49-24.77,9.81-34.97c6.34-7.77,14.53-12.31,24.62-12.9
			c10.16-0.59,18.67,3.01,25.41,10.7c6.3,7.19,8.85,15.72,9.02,25.1c0.05,2.64-0.07,5.27-0.5,7.88c-0.11,0.66-0.12,1.37-0.03,2.04
			c0.29,2.17,2.43,3.18,4.75,2.17c2.93-1.28,5.92-2.35,9.03-3.05c10.27-2.3,20.14-1.1,29.65,3.33c0.62,0.29,1.22,0.61,1.83,0.91
			c2.31,1.13,4.07,0.51,5.12-1.83c1.92-4.27,3.97-8.48,6.12-12.64c5.05-9.77,10.14-19.52,15.17-29.3c0.6-1.17,1.08-1.18,2.01-0.4
			c5.09,4.26,10.18,8.51,15.32,12.7c3.06,2.5,6.14,4.99,8.88,7.84c6.83,7.11,11.76,15.23,13.28,25.14c0.51,3.3,0.56,6.6,0.04,9.91
			c-0.46,2.94,0.09,3.75,2.82,4.84c6.72,2.69,12.78,6.45,18.34,11.12c7.03,5.9,12.93,12.78,17.98,20.37c2.97,4.46,5.82,9,8.76,13.49
			c0.75,1.15,0.26,1.87-0.48,2.61c-2.14,2.17-4.15,4.46-6.15,6.75C726.24,231.73,724.08,234.13,721.97,236.56z"/>
		<path class="st1" d="M303.68,233.3c-2.73-7.58-7.06-14.01-13.83-18.61c-0.84-0.57-0.77-0.99,0.07-1.47
			c4.97-2.85,7.66-7.36,9.15-12.71c1.64-5.88,1.57-11.86,0.84-17.85c-0.93-7.68-3.07-14.94-7.82-21.23
			c-4.66-6.18-10.65-10.5-18.05-12.78c-5.62-1.74-11.43-2.02-17.27-1.96c-7.26,0.08-14.11,1.78-20.73,4.72
			c-1.57,0.7-1.98,1.61-1.98,3.22c0.05,22.59,0.03,45.19,0.03,67.79c0,22.78,0,45.55,0,68.33c0,1.88,0.04,1.92,1.9,1.92
			c10.64,0,21.29,0,31.93,0c5.15,0,10.14-1,14.93-2.81c11.74-4.43,18.35-13.34,21.65-25.07c1.72-6.12,1.9-12.38,1.62-18.67
			C305.94,241.74,305.17,237.43,303.68,233.3z M257.57,186.38c0-4.27,0-8.54,0-12.81c0-1.67,0.09-1.79,1.79-1.75
			c2.86,0.07,5.73,0.07,8.49,0.99c2.63,0.87,4.74,2.52,5.89,4.97c2.7,5.75,3.1,11.73,0.78,17.71c-1.75,4.49-5.68,5.73-9.38,5.65
			c-1.95-0.04-3.9-0.17-5.85-0.13c-1.24,0.02-1.68-0.45-1.67-1.68c0.05-4.31,0.02-8.63,0.02-12.95
			C257.61,186.38,257.59,186.38,257.57,186.38z M279.51,251.84c-1.26,5.89-5.12,8.86-11.73,9.12c-2.73,0.11-5.46,0-8.19,0.04
			c-1.08,0.01-1.43-0.49-1.42-1.5c0.03-3.59,0.01-7.18,0.01-10.77c0.15-6.36-0.34-12.72-0.28-19.08c0.02-1.77,0.11-1.91,1.83-1.89
			c2.82,0.03,5.63-0.06,8.45,0.16c5.7,0.44,9.47,4.22,10.96,9.36C280.53,242.09,280.55,246.98,279.51,251.84z"/>
		<path class="st1" d="M515.58,223.31c-0.09-4.41-0.01-8.82-0.01-13.23c0-6.68-0.02-13.36,0.02-20.05c0.01-1.17-0.41-1.67-1.56-1.94
			c-4.71-1.08-9.44-1.19-14.23-0.78c-8.57,0.74-16.79,2.76-24.33,6.98c-14.62,8.17-23.61,20.56-27.19,36.88
			c-2.22,10.13-2.31,20.2,1.33,30.07c1.67,4.55,4.2,8.53,8.01,11.65c3.1,2.54,6.57,4.2,10.53,4.84c0.42,0.07,1.04-0.02,1.18,0.48
			c0.12,0.43-0.43,0.63-0.7,0.91c-2.84,2.96-5.35,6.18-7.55,9.64c-6.32,9.93-8.05,20.68-5.26,32.02c2.11,8.6,7.27,14.73,15.98,17.45
			c4.01,1.25,8.11,1.5,12.27,1.08c7.53-0.76,14.05-3.64,19.14-9.34c4.65-5.21,7.18-11.54,9.08-18.14c2.31-8.03,3.3-16.28,3.52-24.62
			c0.21-7.95-0.14-15.89-0.06-23.84C515.87,250.03,515.84,236.67,515.58,223.31z M471.94,248.24c-0.63-6.49-0.61-12.97,0.77-19.39
			c1.05-4.91,2.8-9.51,6.43-13.16c2.84-2.84,6.33-4.14,10.34-4.15c1.25,0,1.76,0.4,1.75,1.74c-0.06,5.91-0.03,11.81-0.03,17.72
			c0,5.68,0.05,11.36-0.02,17.04c-0.04,3.5-0.73,6.85-2.82,9.79c-2.18,3.06-5.82,4.48-9.46,3.64c-2.32-0.54-3.74-2.15-4.78-4.14
			C472.64,254.49,472.24,251.35,471.94,248.24z M490.44,306.54c-0.41,1.92-1.1,3.76-2.28,5.35c-1.88,2.55-4.58,3.06-7.45,2.48
			c-2.69-0.55-4.15-2.57-4.66-5.15c-0.76-3.84-0.5-7.67,0.43-11.47c1.37-5.59,4.56-10.14,8.15-14.47c1.74-2.11,3.68-4.01,5.83-5.71
			c0.3-0.23,0.6-0.68,1.05-0.42c0.36,0.21,0.23,0.66,0.23,1.01c0.01,3,0.01,6,0.01,10.09C491.82,293.65,491.81,300.15,490.44,306.54
			z"/>
		<path class="st1" d="M590.9,244.62c4.92-0.27,9.77-0.94,14.44-2.65c10.12-3.7,16.33-10.88,18.82-21.29
			c1.32-5.52,1.52-11.13,1.15-16.79c-0.39-6.02-1.65-11.74-4.43-17.15c-5.46-10.6-17.86-14.23-27.47-11.2
			c-7.12,2.24-12.23,6.98-16.38,12.93c-4.5,6.47-7.22,13.75-9.27,21.28c-2.33,8.56-3.24,17.31-3.1,26.48
			c-0.08,3.79,0.18,7.87,0.51,11.95c0.65,8.06,2.13,15.93,5.25,23.45c2.21,5.31,5.12,10.12,9.58,13.89
			c7.2,6.09,15.65,7.96,24.75,6.94c7.15-0.8,13.35-4.01,18.71-8.82c0.85-0.76,1.06-1.56,0.8-2.66c-1.56-6.45-3.08-12.91-4.59-19.37
			c-0.59-2.5-0.58-2.51-2.5-0.81c-2.93,2.61-6.17,4.75-10.03,5.58c-7.61,1.64-13.67-0.78-16.57-8.78c-1.34-3.68-1.41-7.47-1.37-11.3
			C589.21,245.06,589.7,244.69,590.9,244.62z M588.73,220.75c0.48-4.15,1.04-8.29,2.41-12.28c0.96-2.78,2.2-5.36,4.4-7.42
			c3.72-3.48,8.58-2.25,10.08,2.6c0.4,1.31,0.58,2.66,0.52,3.84c0,6.36-3.49,11.11-9.73,13.43c-1.97,0.73-3.98,1.25-6.09,1.41
			C588.75,222.45,588.54,222.34,588.73,220.75z"/>
		<path class="st1" d="M381.54,282.75c-1.12-4.32-0.89-8.76-1.06-13.15c-0.28-7.31,0.15-14.63,0.2-21.95
			c0.07-9.9,0.4-19.81,0.03-29.71c-0.04-0.97-0.06-1.79-1.34-1.94c-7.44-0.9-14.63-2.86-21.7-5.26c-1.47-0.5-1.58-0.41-1.58,1.1
			c0.02,9.77,0.05,19.54-0.19,29.32c-0.18,7.59-0.04,15.18-0.01,22.78c0.01,1.62-0.3,3.16-0.9,4.65c-1.21,3.02-3.69,4.5-6.89,4.16
			c-3.54-0.38-6.05-2.92-6.95-7.04c-0.59-2.72-0.77-5.49-0.82-8.26c-0.28-15.91,0.37-31.82,0.23-47.73
			c-0.01-1.5-0.01-2.99-0.18-4.49c-0.1-0.85-0.45-1.29-1.22-1.59c-1.82-0.71-3.63-1.45-5.42-2.24c-5.12-2.25-10.22-4.55-15.33-6.8
			c-2.07-0.91-2.15-0.86-2.1,1.47c0.04,2.18,0.22,4.36,0.2,6.54c-0.04,6.09,0.06,12.18-0.15,18.27c-0.22,6.4-0.05,12.82-0.05,19.23
			c0.1,7.36-0.31,14.73,0.21,22.08c0.41,5.84,1.47,11.52,3.77,16.94c5.02,11.82,16.47,16,27.06,14.5c5.33-0.75,9.52-3.66,12.85-7.84
			c0.27-0.34,0.47-0.94,0.98-0.84c0.59,0.12,0.51,0.79,0.6,1.25c0.31,1.65,0.64,3.31,0.85,4.97c0.14,1.06,0.6,1.49,1.68,1.49
			c5.91-0.03,11.83-0.02,17.74,0c1.1,0,1.43-0.39,1.23-1.5C382.76,288.35,382.26,285.53,381.54,282.75z"/>
		<path class="st1" d="M701.65,208.66c-4.94-5.5-10.55-10.13-17.28-13.29c-4.17-1.96-8.54-2.94-13.11-1.72
			c-5.94,1.58-9.38,5.84-11.44,11.33c-2.37,6.33-2.76,12.92-2.16,19.61c0.89,9.97,5.16,18.02,13.17,24.12
			c3.22,2.45,6.6,4.67,9.81,7.13c3.49,2.68,5.47,6.03,4.61,10.61c-0.44,2.33-1.9,3.54-4.26,3.59c-1.97,0.04-3.77-0.55-5.51-1.38
			c-5.55-2.62-10.15-6.52-14.44-10.82c-0.86-0.86-1.14-0.76-1.44,0.34c-1.74,6.26-3.5,12.52-5.28,18.77
			c-0.28,0.99-0.08,1.73,0.65,2.46c2.58,2.58,5.35,4.94,8.5,6.79c8.39,4.93,17.36,7.48,27.14,5.85c6.5-1.08,11.58-4.32,14.56-10.45
			c2.33-4.8,2.94-9.89,2.77-15.13c-0.19-6.04-1.85-11.66-5.15-16.72c-3.53-5.4-8.34-9.57-13.35-13.52
			c-2.43-1.91-5.01-3.64-7.12-5.91c-2.17-2.33-4-4.86-3.88-8.46c-0.01-0.74,0.02-1.64,0.26-2.53c0.68-2.42,2.32-3.4,4.75-2.78
			c1.16,0.29,2.23,0.79,3.21,1.47c4.66,3.23,8.33,7.41,11.61,11.98c0.95,1.33,1.21,1.36,2.16,0.08c2.5-3.36,5.16-6.58,7.96-9.68
			c0.98-1.09,0.92-1.89,0.14-2.97C706.39,214.41,704.15,211.44,701.65,208.66z"/>
		<path class="st1" d="M553.59,177.41c-7.61,0.74-15.15,1.94-22.62,3.53c-0.92,0.19-1.3,0.6-1.3,1.55
			c0.01,3.45-0.11,6.91-0.17,10.36c-0.23,13.04-0.05,26.09-0.25,39.14c-0.25,16.32-0.02,32.64-0.37,48.96c0,3.32-0.01,6.64,0,9.96
			c0,1.67,0.08,1.77,1.8,1.73c1.63-0.04,3.27-0.2,4.9-0.22c5.41-0.08,10.82,0,16.23-0.24c1.23-0.05,1.66-0.43,1.67-1.67
			c0.04-5.23,0.01-10.45,0.18-15.68c0.27-8.49,0.01-17,0.29-25.5c0.28-8.31,0.02-16.63,0.26-24.95c0.26-9.22,0.03-18.45,0.31-27.68
			c0.13-4.36,0.04-8.73,0.08-13.09c0.02-1.68,0.14-3.36,0.19-5.04C554.83,177.76,554.56,177.32,553.59,177.41z"/>
		<path class="st1" d="M442.39,205.41c-0.18-0.02-0.36-0.04-0.54-0.04c-9.76-0.44-17.06,3.8-22.43,11.73
			c-1.37,2.02-2.35,4.26-3.34,6.58c-0.59-0.54-0.56-1.12-0.67-1.62c-0.5-2.22-1-4.43-1.44-6.66c-0.2-1.02-0.64-1.37-1.7-1.09
			c-2.2,0.59-4.42,1.08-6.63,1.61c-2.7,0.66-5.44,1.11-8.22,1.13c-1.41,0.01-1.76,0.54-1.76,1.86c0.03,24,0.02,48.01,0.03,72.01
			c0,1.67,0.08,1.74,1.8,1.75c7.28,0.01,14.55,0.01,21.83,0c1.75,0,1.81-0.07,1.81-1.88c0-4.86-0.03-9.73-0.02-14.59
			c0.01-4.36,0-8.73,0.12-13.09c0.16-5.95,0.31-11.91-0.04-17.85c-0.5-8.46,2.78-14.24,11.48-15.73c2.64-0.45,5.36-0.32,8,0.32
			c0.97,0.23,1.5,0.05,1.55-1.02c0.02-0.36,0.12-0.72,0.17-1.08c0.84-6.35,1.65-12.7,2.51-19.05
			C445.24,206.01,445.07,205.75,442.39,205.41z"/>
		<path class="st1" d="M542.75,130.82c-3.78,0.7-6.74,2.82-8.91,5.83c-4.67,6.47-5.78,13.73-3.79,21.38
			c0.91,3.51,2.89,6.47,6.62,7.55c5,1.44,9.4,0.03,12.99-3.58c4.25-4.27,6.06-9.6,6.04-15.58c0-5.17-1.13-9-3.84-12.21
			C549.48,131.42,546.45,130.13,542.75,130.82z"/>
		<path class="st1" d="M664.3,172.44c1.51-2.13,2.56-4.39,2.45-6.98c0.03-1.56-0.16-3-0.63-4.38c-1.63-4.79-4.47-8.79-8.07-12.3
			c-2.33-2.27-2.36-2.31-3.79,0.54c-5.09,10.1-10,20.29-14.65,30.61c-0.32,0.71-0.26,1.26,0.14,1.91c1.5,2.44,3,4.88,4.42,7.36
			c0.61,1.06,1.07,1.21,2.04,0.33c3.37-3.04,6.85-5.96,10.24-8.98C659.25,178.04,662.09,175.55,664.3,172.44z"/>
	</g>
	<g>
		<defs>
			<rect id="XMLID_6_" x="-636.33" y="539.03" width="1920" height="1311.32"/>
		</defs>
		<use xlink:href="#XMLID_6_"  style="overflow:visible;fill:#006BB1;"/>
		<clipPath id="XMLID_2_">
			<use xlink:href="#XMLID_6_"  style="overflow:visible;"/>
		</clipPath>
		<g class="st5">
			
				<rect x="756.19" y="449.1" transform="matrix(0.9058 -0.4236 0.4236 0.9058 -150.0731 411.3916)" class="st6" width="188.35" height="188.36"/>
			
				<rect x="926.81" y="369.31" transform="matrix(0.9058 -0.4236 0.4236 0.9058 -100.2045 476.1566)" class="st7" width="188.36" height="188.36"/>
		</g>
		<use xlink:href="#XMLID_6_"  style="overflow:visible;fill:none;stroke:#FFFFFF;stroke-width:0.25;stroke-miterlimit:10;"/>
	</g>
</g>
<g id="Capa_2">
</g>
</svg>
