<svg id="Capa_1" data-name="Capa 1" xmlns="http://www.w3.org/2000/svg" viewBox="0 0 171.74 149.89"><defs><style>.cls-1{fill:#006fba;}</style></defs><path class="cls-1" d="M11.67,73.17c-5.15-1,3.74-23.92,5-26.42A62.15,62.15,0,0,1,37.89,22.29,84.61,84.61,0,0,1,86.19,8.11c30.39.28,64.58,15.8,74.25,46.86,1.06,3.42,5.47,16.53,1.7,18.11-1.28.54-4,0-5.33,0H11c-3,0-3,4.71,0,4.71h127.2c7.52,0,15,.1,22.57,0,2.26,0,4.46,0,6.05-2.05,2.1-2.67,1.14-6.94.75-10a70.88,70.88,0,0,0-3.7-15.2C152.3,18.6,116.2,3.27,84.4,3.39c-20.29.08-41,7.06-56.33,20.57A66.88,66.88,0,0,0,8.12,56c-1.48,5.29-6.24,20,2.3,21.7C13.38,78.3,14.64,73.77,11.67,73.17Z"/><path class="cls-1" d="M165.22,87.89V75.43a2.39,2.39,0,0,0-2.35-2.35H11a2.42,2.42,0,0,0-2.36,2.35c-.44,4.38-1.13,9.82,1.49,13.64,2.15,3.13,5.33,5.63,9.18,4.25,4.16-1.5,7.25-6.12,11.91-4.29a70.15,70.15,0,0,1,7.33,4c4.19,2.28,8.82,5.84,13.52,7,4.88,1.25,10.13-3,14.14-5.19l8.63-4.79c1.42-.79,3.45-2.58,5-2.81,1.79-.26,3.6,1.41,5,2.26l8.78,5.23c3.95,2.35,9.2,6.88,14.11,5.84s9.69-5.8,13.68-8.45c3.43-2.28,5.09-4.07,9.47-2.06a141.53,141.53,0,0,0,17.65,7.18c4.22,1.3,8.22,2.26,12.13-.49a11.13,11.13,0,0,0,4.53-8.87c.09-3-4.62-3-4.71,0-.36,12.38-21.52,1-26.52-1.54-5.48-2.76-9.08-2.18-13.87,1l-7.4,4.92c-1.5,1-3.3,2.73-5,3.34-4.07,1.46-10.24-4.1-13.35-6-3.55-2.12-7.09-4.7-10.84-6.46C79.34,81.27,76,84,72.42,86c-4.92,2.73-9.78,5.65-14.79,8.22-2,1-3.21,1.76-5.56.79a60,60,0,0,1-5.68-3.08c-4.5-2.44-9-5.21-13.59-7.36-5-2.32-8.07.51-12.4,2.72-1.14.59-2.66,2-4,1.59s-2.83-3-3.2-4.29c-.75-2.68-.14-6.46.13-9.15L11,77.79H162.87l-2.36-2.36V87.89C160.51,90.92,165.22,90.93,165.22,87.89Z"/><path class="cls-1" d="M19.72,93.13c3-1.47,7.25-5.51,10.65-4.43a25.91,25.91,0,0,1,4,2.19c4.7,2.55,9.38,5.17,14.12,7.66,3.65,1.91,6.77,2.16,10.53.24C63.43,96.57,67.66,94,72,91.64c2.6-1.45,6.75-5.09,9.76-3.9,4.37,1.73,8.62,5.13,12.66,7.54,3.17,1.89,7.07,5.17,10.89,5.49,4.24.36,8-3.23,11.31-5.42l7.35-4.89c3.49-2.31,6.11-.66,9.75,1.08,7.56,3.59,18.48,9.82,26.68,5.46l-3.23-.84c2.15,2.78.94,6.71-1.07,9.25s-5,1.85-8.05,1.85H45.1c-6.92,0-13.85,0-20.77,0-3.63,0-6.3-.54-7.73-4.36s-.76-7.93,3.12-9.77c2.74-1.29.35-5.35-2.37-4.07-10.9,5.15-6.56,22.27,5,22.91,19.32,1.08,39,0,58.37,0H139.1c6.64,0,15.74,2.28,20.48-3.36,3.29-3.94,5-10.48,1.61-14.83a2.43,2.43,0,0,0-3.22-.85c-4.44,2.36-10.2-.67-14.5-2.3S134.68,86,130.1,84.74c-5.14-1.38-8.31,1.5-12.28,4.14-3.22,2.14-9.29,8.19-13.59,6.78-3.55-1.15-7.22-4.29-10.4-6.19-3.41-2-6.82-4.52-10.43-6.2-4-1.85-7,.5-10.37,2.37L58.9,93.5A14.68,14.68,0,0,1,55,95.41c-2.27.47-4.16-1-6.09-2-5-2.72-10-5.56-15-8.16-6.67-3.41-10.64.94-16.5,3.83C14.63,90.41,17,94.47,19.72,93.13Z"/><path class="cls-1" d="M140.5,143.11H44.17c-9,0-18.68,1.27-25.49-6.05-5-5.35-6.36-14.71-5.12-21.9.62-3.6,3.18-3.17,5.93-3.17H154.75a10.58,10.58,0,0,1,1.95,0c3.93.74,2.8,6.27,2.8,9.25,0,11.58-6.49,21.47-19,21.87-3,.1-3,4.81,0,4.71a24.18,24.18,0,0,0,22.07-15.1,29.22,29.22,0,0,0,1.64-11c0-2.77.52-6.22-.26-8.93-2.17-7.51-13.32-5.46-19.2-5.46H24c-2.45,0-4.94-.14-7.38,0-5.88.33-7.76,4.66-7.76,9.87,0,8.09.09,15.71,5.63,22.26,4.73,5.58,11.46,8.29,18.67,8.41,9.42.17,18.86,0,28.29,0H140.5C143.53,147.82,143.54,143.11,140.5,143.11Z"/><path class="cls-1" d="M49.42,131,18.93,107.6,17.74,112H76.08l-1.66-4L46.57,131.39c-2.33,2,1,5.27,3.33,3.33l27.85-23.43c1.61-1.35.25-4-1.67-4H17.74c-2.54,0-2.92,3.06-1.19,4.39L47,135.09C49.45,136.94,51.79,132.85,49.42,131Z"/><path class="cls-1" d="M24.1,62.25c3.63,0,3.64-5.65,0-5.65s-3.65,5.65,0,5.65Z"/><path class="cls-1" d="M32.14,50.69A73,73,0,0,1,93.6,18.81c3,.05,3-4.66,0-4.71A77.85,77.85,0,0,0,28.07,48.32c-1.7,2.51,2.38,4.87,4.07,2.37Z"/></svg>