<svg id="Capa_1" data-name="Capa 1" xmlns="http://www.w3.org/2000/svg" viewBox="0 0 948.77 470.3"><defs><style>.cls-1{fill:#006bb1;}</style></defs><path class="cls-1" d="M927.13,217.93c3.28-3.66,3.39-5,.81-8.85-6.92-10.4-13.29-21.14-20.48-31.37-13.35-19-29.57-34.74-49.75-46.31-2.83-1.63-5.86-2.91-8.83-4.31-1.15-.54-1.82-1.2-1.62-2.62a50.79,50.79,0,0,0,0-11.16c-1.76-20.78-11.86-37.44-25.71-52.25-4.32-4.62-9.28-8.55-14.16-12.57-11.27-9.31-22.5-18.66-33.8-27.93-3.36-2.76-6.88-2-8.87,1.84-6,11.47-12,23-17.9,34.46-6.16,12-12.21,24-18.3,36.07-1.8,3.56-1.8,3.59-5.59,2a86.43,86.43,0,0,0-32.76-6.44A84,84,0,0,0,664,92.42c-1.6.5-2.7.66-2.57-1.58.1-1.67,0-3.35,0-5a72.18,72.18,0,0,0-.43-8.44c-2-18.18-9.29-33.84-22.91-46.21-13.18-12-28.81-17.24-46.61-15.9-20.63,1.56-36.77,11.51-49.23,27.38-12.31,15.69-17.64,34-18,53.86A81.36,81.36,0,0,0,525.1,107c.18,1.67-.3,2.6-2.19,2.58-1.59,0-3.19.26-4.78.38a147.3,147.3,0,0,0-36.65,7.36c-15.37,5.32-29.77,12.52-42.4,22.92a5.13,5.13,0,0,1-4.44,1.1,77.15,77.15,0,0,0-19.33-.83c-12.13,1.12-23.69,4-34.49,9.77-3.34,1.79-6.35,4.25-10.16,5.14a91.88,91.88,0,0,1-18.3,2.55,164.39,164.39,0,0,1-25.76-1.34c-14.24-1.87-28.28-4.52-41.75-9.69-18-6.91-35.42-15.21-53.2-22.64a6.86,6.86,0,0,1-4.33-5c-3.7-12.8-8.83-24.92-16.53-35.95-8.88-12.74-20.13-22.71-34.14-29.23A129.51,129.51,0,0,0,113,41.76c-16.66,1.05-32.64,5-48.22,10.73C54,56.47,44.4,62.55,34.28,67.67a6.7,6.7,0,0,0-4.07,6.7q.08,148.88,0,297.76c0,5.06,1.63,6.66,6.74,6.66q48.58,0,97.18,0a94,94,0,0,0,11.63-.68A114.8,114.8,0,0,0,197.11,359a2.3,2.3,0,0,1,3.35.19,89,89,0,0,0,34.42,18.32c10.51,2.94,21.2,4.41,32.09,3.13,9.46-1.11,18.88-2.38,28.43-1.82.92,0,1.83,0,2.75,0h99.23c3.16,0,3.32.16,3.82,3.22a113,113,0,0,0,2.68,12c4.83,17.18,13.85,31.81,27.55,43.27,16.19,13.54,35.29,19.46,56.18,20a108.83,108.83,0,0,0,20.68-1.8,89.76,89.76,0,0,0,45.1-21.27c16-14,25.54-32.17,32.05-52.1,1.09-3.35,1-3.39,4.52-3.39H687.6c4,0,8.06,0,12.1-.38A97.72,97.72,0,0,0,732,369.71c9.11-4.14,17.81-9,25.2-15.92,1.1-1,2.08-1.47,3.54-.3a116,116,0,0,0,25.44,15.18,112.64,112.64,0,0,0,42,10c13.45.5,26.57-1.3,39.12-6.54,15.08-6.29,27.24-16,35.85-30a90.23,90.23,0,0,0,13.14-40c1.74-19.78-1-38.73-10.23-56.51-1.07-2.07-.66-3.49.87-5.06C914,233.31,920.37,225.47,927.13,217.93Zm-32.31,20.64a5.53,5.53,0,0,0-.66,7c9.7,16.11,12.87,33.74,11.84,52.22-.83,14.7-4.7,28.55-13.26,40.76A65.49,65.49,0,0,1,855.24,365c-17.37,4.68-34.7,3.69-51.9-1.21-15.28-4.35-28.63-12.26-40.83-22.28-2.64-2.17-5.14-2.08-7.7.33A94.39,94.39,0,0,1,707,366.56a92,92,0,0,1-17.27,1.58q-52.37.09-104.72,0c-6,0-6.88.76-8.4,6.45-4.44,16.64-11.67,31.89-23.11,44.9-12.35,14.05-28.06,22.14-46.37,25.47a87.4,87.4,0,0,1-16.79,1.69c-20.68-.25-39.52-5.68-55-20.31-14.63-13.84-22.06-31.07-24.55-50.74-.12-1-.24-2-.41-2.94a5,5,0,0,0-5-4.46c-.91-.05-1.83,0-2.74,0q-60.37,0-120.73,0a47.48,47.48,0,0,0-7.71.74c-24.39,4-46.42-1.4-65.82-16.88-1.78-1.42-3.42-3-5.08-4.6-2.63-2.49-4.71-2.63-7.73-.54s-6.1,4.3-9.25,6.31c-12.42,7.95-26.15,12.2-40.69,14.07a139,139,0,0,1-18,.93q-41.61-.06-83.23,0c-4,0-4,0-4-3.89V222q0-71.07-.06-142.15c0-2.76.85-4.21,3.33-5.41,10-4.83,19.66-10.37,30.25-14a150.16,150.16,0,0,1,32.68-7.46,122.08,122.08,0,0,1,55.15,6.31c20.81,7.47,36.73,20.58,46.68,40.62,3.94,7.94,7.49,16,9.59,24.64a11.4,11.4,0,0,0,7.23,8.53c18.21,8,36.45,15.89,54.83,23.47,12.26,5.06,25.19,7.67,38.25,9.65a181.76,181.76,0,0,0,32.78,2.29,98.53,98.53,0,0,0,23.71-3.31,35,35,0,0,0,8.22-3.91A77.6,77.6,0,0,1,415.49,151a63.59,63.59,0,0,1,21.31,1.5,5.57,5.57,0,0,0,5.28-1.26,128.55,128.55,0,0,1,43.24-24.1,142.69,142.69,0,0,1,36.53-6.76c3-.15,5.93-.35,8.9-.36,3.68,0,5.54-1.86,5.79-5.59.2-2.86-.71-5.58-1-8.38C533.18,84.34,538,64.58,552,47.48c10.62-13,24.35-20.64,41.26-21.61s31.29,5,42.58,17.92c10.56,12.05,14.83,26.33,15.11,42.06a72.84,72.84,0,0,1-.83,13.2,12.25,12.25,0,0,0-.06,3.42c.48,3.62,4.08,5.33,8,3.63A83.42,83.42,0,0,1,673.12,101c17.2-3.86,33.75-1.84,49.69,5.58,1,.49,2,1,3.07,1.53,3.86,1.9,6.82.86,8.58-3.06q4.81-10.74,10.25-21.19c8.46-16.37,17-32.7,25.41-49.1,1-2,1.81-2,3.37-.67,8.52,7.13,17.06,14.25,25.67,21.28A164.23,164.23,0,0,1,814,68.5c11.45,11.91,19.7,25.53,22.25,42.13a54.35,54.35,0,0,1,.07,16.6c-.77,4.93.15,6.29,4.73,8.12A112.44,112.44,0,0,1,871.82,154a159.68,159.68,0,0,1,30.12,34.13c5,7.47,9.76,15.09,14.69,22.6,1.26,1.92.43,3.14-.8,4.38-3.59,3.64-7,7.47-10.31,11.31C902,230.48,898.36,234.5,894.82,238.57Z"/><path class="cls-1" d="M194,233.11c-4.58-12.71-11.83-23.47-23.17-31.18-1.41-1-1.29-1.66.11-2.46,8.33-4.78,12.84-12.34,15.34-21.3,2.74-9.85,2.62-19.88,1.4-29.9-1.56-12.87-5.14-25-13.1-35.58A58.79,58.79,0,0,0,144.3,91.27c-9.42-2.91-19.14-3.39-28.94-3.29a86.8,86.8,0,0,0-34.72,7.91c-2.64,1.17-3.32,2.7-3.32,5.4q.12,56.79.06,113.57,0,57.26,0,114.49c0,3.15.07,3.22,3.18,3.22h53.51a70.57,70.57,0,0,0,25-4.71c19.67-7.42,30.74-22.36,36.28-42,2.89-10.25,3.19-20.75,2.71-31.28A72.61,72.61,0,0,0,194,233.11ZM116.7,154.49q0-10.73,0-21.46c0-2.81.15-3,3-2.93,4.79.12,9.6.12,14.23,1.66a16,16,0,0,1,9.87,8.33c4.53,9.63,5.2,19.65,1.3,29.67-2.92,7.52-9.51,9.59-15.71,9.46-3.27-.07-6.54-.28-9.81-.22-2.09,0-2.82-.76-2.8-2.82.07-7.23,0-14.46,0-21.69Zm36.76,109.69c-2.12,9.87-8.58,14.85-19.66,15.28-4.56.18-9.14,0-13.72.06-1.8,0-2.39-.81-2.38-2.51,0-6,0-12,0-18.05.25-10.67-.57-21.32-.47-32,0-3,.19-3.2,3.07-3.17,4.72.05,9.43-.09,14.16.27,9.54.74,15.87,7.08,18.36,15.69A49.46,49.46,0,0,1,153.46,264.18Z"/><path class="cls-1" d="M549,216.36c-.14-7.38,0-14.77,0-22.16,0-11.2,0-22.39,0-33.59,0-2-.68-2.81-2.61-3.25a76.38,76.38,0,0,0-23.84-1.31c-14.37,1.24-28.14,4.63-40.77,11.69-24.49,13.69-39.56,34.46-45.56,61.79-3.72,17-3.86,33.85,2.23,50.39a44.46,44.46,0,0,0,13.42,19.53,36.63,36.63,0,0,0,17.64,8.1c.71.12,1.74,0,2,.81s-.73,1.06-1.18,1.53a103.52,103.52,0,0,0-12.66,16.16c-10.59,16.63-13.48,34.64-8.81,53.65,3.54,14.41,12.19,24.68,26.78,29.24a51,51,0,0,0,20.56,1.81c12.61-1.27,23.53-6.1,32.06-15.64,7.8-8.73,12-19.34,15.21-30.39a163.86,163.86,0,0,0,5.91-41.25c.35-13.31-.23-26.63-.1-40C549.49,261.14,549.44,238.75,549,216.36Zm-73.12,41.77c-1.05-10.87-1-21.73,1.28-32.48,1.77-8.23,4.69-15.94,10.78-22.05a23.63,23.63,0,0,1,17.33-7c2.09,0,3,.68,2.93,2.92-.1,9.9,0,19.8,0,29.69,0,9.52.08,19,0,28.55-.07,5.86-1.22,11.49-4.73,16.41a15.08,15.08,0,0,1-15.85,6.1c-3.89-.9-6.26-3.6-8-6.94C477.05,268.61,476.4,263.35,475.89,258.13Zm31,97.7a23,23,0,0,1-3.81,9c-3.16,4.27-7.68,5.13-12.48,4.15-4.51-.92-7-4.32-7.81-8.62a44,44,0,0,1,.71-19.23c2.3-9.36,7.65-17,13.65-24.24a64.47,64.47,0,0,1,9.77-9.56c.49-.39,1-1.14,1.76-.7.6.34.39,1.1.39,1.68,0,5,0,10.05,0,16.9C509.19,334.24,509.17,345.11,506.88,355.83Z"/><path class="cls-1" d="M675.21,252.07c8.24-.45,16.37-1.57,24.19-4.43,17-6.2,27.36-18.24,31.54-35.68a93.83,93.83,0,0,0,1.93-28.13c-.66-10.08-2.77-19.67-7.43-28.73-9.15-17.75-29.93-23.84-46-18.76C667.48,140.09,658.91,148,652,158c-7.54,10.84-12.09,23-15.52,35.66a157.91,157.91,0,0,0-5.2,44.36,200.11,200.11,0,0,0,.85,20c1.1,13.51,3.58,26.7,8.8,39.28,3.69,8.91,8.58,17,16.05,23.28,12.06,10.2,26.22,13.33,41.47,11.62,12-1.34,22.37-6.72,31.36-14.78A4.05,4.05,0,0,0,731.1,313c-2.62-10.8-5.15-21.63-7.7-32.45-1-4.19-1-4.21-4.18-1.35-4.9,4.38-10.34,8-16.8,9.35-12.75,2.75-22.9-1.3-27.77-14.71-2.24-6.16-2.36-12.51-2.3-18.93C672.37,252.82,673.2,252.19,675.21,252.07Zm-3.64-40c.81-7,1.73-13.9,4-20.58,1.6-4.66,3.68-9,7.37-12.43,6.23-5.83,14.38-3.77,16.88,4.36a19,19,0,0,1,.88,6.43c0,10.66-5.84,18.61-16.31,22.5a37.28,37.28,0,0,1-10.21,2.37C671.6,214.93,671.25,214.75,671.57,212.08Z"/><path class="cls-1" d="M324.41,316c-1.87-7.24-1.48-14.67-1.76-22-.47-12.25.25-24.51.34-36.77.12-16.6.68-33.19.05-49.79-.06-1.63-.1-3-2.25-3.25-12.46-1.51-24.5-4.8-36.36-8.81-2.46-.83-2.65-.69-2.65,1.83,0,16.38.08,32.75-.32,49.13-.3,12.71-.07,25.44,0,38.16a20.54,20.54,0,0,1-1.5,7.8c-2,5.05-6.18,7.54-11.55,7-5.94-.63-10.15-4.88-11.65-11.79a71.54,71.54,0,0,1-1.38-13.84c-.47-26.66.62-53.31.39-80a70.22,70.22,0,0,0-.3-7.53,2.85,2.85,0,0,0-2-2.66c-3.05-1.19-6.08-2.43-9.08-3.75-8.57-3.78-17.12-7.62-25.69-11.4-3.47-1.53-3.6-1.44-3.53,2.47.07,3.65.37,7.3.34,11-.07,10.2.1,20.4-.25,30.61-.37,10.73-.08,21.48-.08,32.22.17,12.33-.52,24.67.36,37,.69,9.79,2.46,19.3,6.32,28.39,8.42,19.81,27.6,26.81,45.34,24.3,8.93-1.27,15.95-6.14,21.53-13.14.46-.57.79-1.57,1.64-1.4s.86,1.32,1,2.09c.52,2.77,1.06,5.54,1.42,8.33.23,1.78,1,2.5,2.81,2.49q14.86-.06,29.73,0c1.84,0,2.39-.65,2.05-2.51C326.47,325.34,325.62,320.62,324.41,316Z"/><path class="cls-1" d="M860.78,191.82c-8.28-9.21-17.67-17-28.94-22.27-7-3.28-14.31-4.92-22-2.88-10,2.65-15.72,9.78-19.16,19-4,10.61-4.63,21.64-3.62,32.86,1.49,16.69,8.65,30.18,22.06,40.4,5.4,4.12,11.07,7.83,16.44,12,5.85,4.48,9.17,10.11,7.73,17.78-.73,3.9-3.17,5.94-7.13,6a20.51,20.51,0,0,1-9.23-2.31c-9.3-4.38-17-10.92-24.2-18.12-1.43-1.44-1.9-1.27-2.42.57q-4.37,15.74-8.84,31.45a3.77,3.77,0,0,0,1.1,4.11,71.93,71.93,0,0,0,14.24,11.38c14.06,8.25,29.08,12.54,45.47,9.81,10.88-1.81,19.41-7.23,24.4-17.52,3.91-8,4.92-16.56,4.64-25.34a53.42,53.42,0,0,0-8.63-28c-5.91-9.06-14-16-22.37-22.66-4.06-3.2-8.4-6.09-11.93-9.9s-6.71-8.15-6.5-14.17a14.78,14.78,0,0,1,.45-4.24c1.13-4.06,3.89-5.69,8-4.66a16.52,16.52,0,0,1,5.38,2.46c7.81,5.4,14,12.42,19.45,20.08,1.59,2.23,2,2.27,3.62.12,4.19-5.62,8.66-11,13.35-16.22,1.64-1.82,1.54-3.16.24-5A172.58,172.58,0,0,0,860.78,191.82Z"/><path class="cls-1" d="M612.7,139.47a341.79,341.79,0,0,0-37.91,5.92c-1.54.32-2.18,1-2.17,2.6,0,5.79-.19,11.57-.29,17.35-.39,21.86-.08,43.72-.42,65.58-.43,27.34,0,54.69-.61,82,0,5.56,0,11.12,0,16.69,0,2.8.14,3,3,2.9s5.47-.34,8.21-.38c9.07-.14,18.13,0,27.19-.4,2.07-.09,2.79-.72,2.81-2.79.07-8.76,0-17.51.3-26.27.46-14.23,0-28.48.49-42.72.46-13.93,0-27.87.43-41.81.44-15.45,0-30.92.52-46.38.23-7.3.06-14.62.13-21.94,0-2.81.24-5.62.33-8.43C614.77,140.05,614.31,139.31,612.7,139.47Z"/><path class="cls-1" d="M426.37,186.38c-.31,0-.61-.06-.92-.08-16.34-.74-28.58,6.37-37.57,19.66a65.52,65.52,0,0,0-5.6,11,4.12,4.12,0,0,1-1.13-2.72c-.84-3.71-1.67-7.43-2.41-11.16-.34-1.71-1.08-2.31-2.85-1.83-3.68,1-7.41,1.8-11.11,2.7a59.5,59.5,0,0,1-13.77,1.9c-2.37,0-2.95.9-2.95,3.12q.07,60.33,0,120.66c0,2.79.14,2.92,3,2.92H387.7c2.94,0,3-.11,3-3.15,0-8.15-.05-16.3,0-24.45,0-7.31,0-14.62.2-21.93.27-10,.52-19.94-.07-29.9-.83-14.18,4.66-23.87,19.23-26.36a33.12,33.12,0,0,1,13.4.53c1.62.4,2.51.09,2.59-1.7,0-.61.2-1.21.28-1.81,1.4-10.64,2.77-21.28,4.2-31.92C431.14,187.38,430.86,186.94,426.37,186.38Z"/><path class="cls-1" d="M594.53,61.39a23.39,23.39,0,0,0-14.94,9.77c-7.83,10.85-9.68,23-6.35,35.83,1.52,5.88,4.84,10.84,11.09,12.65,8.37,2.41,15.75,0,21.76-6,7.12-7.16,10.16-16.09,10.12-26.11,0-8.66-1.89-15.07-6.44-20.45C605.81,62.4,600.74,60.25,594.53,61.39Z"/><path class="cls-1" d="M798.19,131.13c2.52-3.57,4.28-7.36,4.1-11.7a21.4,21.4,0,0,0-1.06-7.34,52.23,52.23,0,0,0-13.52-20.61c-3.9-3.81-4-3.86-6.35.9q-12.81,25.4-24.56,51.28a3.1,3.1,0,0,0,.23,3.2c2.52,4.08,5,8.18,7.4,12.34,1,1.78,1.8,2,3.43.55,5.65-5.09,11.47-10,17.16-15C789.74,140.51,794.49,136.34,798.19,131.13Z"/></svg>