<svg id="Capa_1" data-name="Capa 1" xmlns="http://www.w3.org/2000/svg" xmlns:xlink="http://www.w3.org/1999/xlink" viewBox="0 0 948.77 470.3"><defs><style>.cls-1,.cls-2,.cls-5{fill:#006bb1;}.cls-1,.cls-4,.cls-5,.cls-6{stroke:#fff;stroke-miterlimit:10;}.cls-1,.cls-6{stroke-width:0.25px;}.cls-3{clip-path:url(#clip-path);}.cls-4{fill:#fff;}.cls-4,.cls-5{stroke-width:0.5px;}.cls-6{fill:none;}</style><clipPath id="clip-path"><rect class="cls-1" x="-636.33" y="539.03" width="1920" height="1311.32"/></clipPath></defs><path class="cls-2" d="M848,219.88c2.74-3.06,2.84-4.16.68-7.4-5.78-8.68-11.1-17.66-17.11-26.2-11.15-15.83-24.7-29-41.56-38.7-2.37-1.35-4.9-2.43-7.38-3.59a1.91,1.91,0,0,1-1.36-2.2,41.5,41.5,0,0,0,0-9.32c-1.47-17.36-9.9-31.28-21.48-43.65a124.25,124.25,0,0,0-11.82-10.51c-9.42-7.77-18.8-15.59-28.25-23.33-2.8-2.3-5.74-1.65-7.41,1.54-5,9.58-10,19.17-15,28.79-5.14,10-10.2,20.09-15.29,30.14-1.51,3-1.51,3-4.67,1.67A72.16,72.16,0,0,0,650,111.74,70.47,70.47,0,0,0,628.14,115c-1.33.42-2.25.55-2.14-1.32.08-1.39,0-2.8,0-4.2a59.27,59.27,0,0,0-.35-7c-1.72-15.19-7.77-28.28-19.14-38.61-11-10-24.07-14.4-38.95-13.28-17.23,1.29-30.72,9.61-41.13,22.87s-14.74,28.42-15.08,45a68.82,68.82,0,0,0,.72,8.74c.16,1.4-.25,2.18-1.83,2.17-1.33,0-2.66.21-4,.31a123,123,0,0,0-30.62,6.15c-12.84,4.44-24.87,10.45-35.42,19.15a4.33,4.33,0,0,1-3.71.92,64.24,64.24,0,0,0-16.16-.7c-10.13.94-19.79,3.32-28.81,8.16-2.79,1.5-5.31,3.55-8.49,4.3a76.52,76.52,0,0,1-15.29,2.13,137.06,137.06,0,0,1-21.52-1.12c-11.89-1.56-23.63-3.77-34.88-8.09-15-5.78-29.59-12.71-44.45-18.92a5.77,5.77,0,0,1-3.62-4.2,100.71,100.71,0,0,0-13.8-30A71.22,71.22,0,0,0,221,83,108.14,108.14,0,0,0,167.74,72.7a140.93,140.93,0,0,0-40.29,9c-8.93,3.32-17,8.41-25.44,12.68a5.6,5.6,0,0,0-3.39,5.6q.06,124.38,0,248.77c0,4.22,1.36,5.56,5.63,5.56q40.59,0,81.19,0a78.59,78.59,0,0,0,9.71-.57,95.93,95.93,0,0,0,42.88-16,1.91,1.91,0,0,1,2.79.16,74.39,74.39,0,0,0,28.76,15.3c8.78,2.45,17.71,3.68,26.81,2.62,7.9-.93,15.78-2,23.76-1.53.76,0,1.52,0,2.29,0h82.91c2.63,0,2.77.13,3.19,2.68A93.07,93.07,0,0,0,410.81,367a71,71,0,0,0,23,36.15c13.53,11.32,29.48,16.26,46.94,16.71a91.14,91.14,0,0,0,17.28-1.5,74.93,74.93,0,0,0,37.68-17.77c13.39-11.7,21.34-26.88,26.77-43.53.92-2.8.83-2.83,3.78-2.83h81.57c3.38,0,6.74,0,10.11-.32a81.38,81.38,0,0,0,27-7.23c7.61-3.46,14.88-7.53,21.06-13.3.91-.86,1.73-1.23,3-.25a97.09,97.09,0,0,0,21.24,12.68,94.16,94.16,0,0,0,35.08,8.34A76.28,76.28,0,0,0,798,348.7c12.6-5.26,22.76-13.4,29.94-25.05a75.16,75.16,0,0,0,11-33.41c1.46-16.53-.84-32.36-8.54-47.21-.89-1.73-.56-2.91.72-4.23C837,232.73,842.32,226.18,848,219.88Zm-27,17.25a4.62,4.62,0,0,0-.55,5.83c8.1,13.46,10.76,28.19,9.89,43.63-.69,12.27-3.93,23.85-11.08,34.05a54.64,54.64,0,0,1-31.32,22.09c-14.52,3.91-29,3.08-43.36-1-12.78-3.64-23.93-10.25-34.12-18.62-2.2-1.81-4.3-1.74-6.43.28a79,79,0,0,1-40,20.67,76.94,76.94,0,0,1-14.43,1.32q-43.74.08-87.49,0c-5,0-5.75.64-7,5.39-3.71,13.9-9.75,26.64-19.31,37.51-10.32,11.74-23.44,18.5-38.73,21.29a74,74,0,0,1-14,1.4c-17.27-.21-33-4.74-45.93-17-12.22-11.56-18.43-26-20.51-42.38-.1-.82-.2-1.65-.35-2.46a4.19,4.19,0,0,0-4.16-3.73c-.76,0-1.53,0-2.29,0q-50.44,0-100.87,0a39.8,39.8,0,0,0-6.44.63c-20.37,3.3-38.78-1.18-55-14.1-1.49-1.19-2.85-2.54-4.24-3.85-2.2-2.08-3.94-2.2-6.46-.45s-5.1,3.59-7.73,5.27c-10.38,6.64-21.85,10.19-34,11.76a116.28,116.28,0,0,1-15,.77q-34.76,0-69.53,0c-3.3,0-3.31,0-3.31-3.25V223.24q0-59.38-.05-118.76a4.29,4.29,0,0,1,2.79-4.52c8.36-4,16.42-8.67,25.27-11.71A125.15,125.15,0,0,1,162.47,82a102.07,102.07,0,0,1,46.07,5.27c17.38,6.24,30.69,17.19,39,33.93a100.41,100.41,0,0,1,8,20.59,9.53,9.53,0,0,0,6,7.13c15.21,6.66,30.45,13.28,45.81,19.61,10.24,4.23,21.05,6.41,32,8.06a151.3,151.3,0,0,0,27.39,1.91,82.36,82.36,0,0,0,19.8-2.76,29.44,29.44,0,0,0,6.87-3.26A64.75,64.75,0,0,1,420.51,164a52.75,52.75,0,0,1,17.8,1.26,4.67,4.67,0,0,0,4.41-1.06A107.53,107.53,0,0,1,478.85,144a119,119,0,0,1,30.52-5.64c2.48-.13,5-.3,7.43-.31,3.08,0,4.63-1.55,4.84-4.67.16-2.38-.6-4.65-.85-7-1.95-18.16,2.08-34.67,13.73-49,8.87-10.88,20.34-17.24,34.47-18s26.14,4.2,35.58,15c8.82,10.07,12.39,22,12.62,35.14a60.78,60.78,0,0,1-.69,11,10.08,10.08,0,0,0,0,2.85c.4,3,3.41,4.46,6.66,3a68.89,68.89,0,0,1,12.64-4.27,63.13,63.13,0,0,1,41.51,4.66c.86.41,1.71.86,2.56,1.28,3.23,1.58,5.7.72,7.17-2.56q4-9,8.57-17.7c7.07-13.67,14.19-27.32,21.23-41,.84-1.63,1.51-1.65,2.81-.56,7.12,6,14.25,11.91,21.45,17.78a136.43,136.43,0,0,1,12.43,11c9.57,9.95,16.46,21.32,18.59,35.2a45.11,45.11,0,0,1,.06,13.87c-.64,4.12.13,5.25,4,6.78a93.82,93.82,0,0,1,25.67,15.56A133,133,0,0,1,826.92,195c4.16,6.24,8.15,12.6,12.27,18.88,1,1.6.36,2.62-.67,3.66-3,3-5.8,6.24-8.61,9.45C827,230.36,823.93,233.72,821,237.13Z"/><path class="cls-2" d="M235.42,232.56c-3.82-10.62-9.88-19.61-19.35-26.05-1.18-.8-1.08-1.38.09-2,7-4,10.72-10.31,12.81-17.8,2.29-8.23,2.19-16.61,1.18-25-1.31-10.75-4.3-20.91-11-29.73a49.18,49.18,0,0,0-25.26-17.89c-7.88-2.43-16-2.83-24.18-2.75a72.62,72.62,0,0,0-29,6.61c-2.19,1-2.77,2.25-2.76,4.51q.09,47.44,0,94.89V313c0,2.63.06,2.69,2.67,2.69h44.69a59,59,0,0,0,20.91-3.94c16.44-6.19,25.68-18.68,30.31-35.1,2.41-8.56,2.67-17.33,2.27-26.13A60.81,60.81,0,0,0,235.42,232.56Zm-64.54-65.68c0-6,0-12,0-17.93,0-2.35.13-2.51,2.5-2.45,4,.1,8,.1,11.89,1.38a13.45,13.45,0,0,1,8.25,7,30.46,30.46,0,0,1,1.09,24.78c-2.45,6.28-8,8-13.14,7.91-2.72-.06-5.46-.24-8.19-.19-1.74,0-2.36-.63-2.34-2.35.06-6,0-12.08,0-18.12Zm30.71,91.64c-1.77,8.25-7.17,12.41-16.43,12.77-3.81.14-7.64,0-11.46,0-1.51,0-2-.68-2-2.1,0-5,0-10.06,0-15.08.21-8.91-.48-17.81-.39-26.72,0-2.47.15-2.67,2.56-2.65,3.94.05,7.88-.08,11.83.23,8,.62,13.26,5.92,15.34,13.1A41.34,41.34,0,0,1,201.59,258.52Z"/><path class="cls-2" d="M532.06,218.57c-.12-6.17,0-12.34,0-18.52,0-9.35,0-18.71,0-28.06,0-1.63-.57-2.34-2.19-2.71a63.77,63.77,0,0,0-19.92-1.1c-12,1-23.5,3.87-34,9.77-20.47,11.43-33.06,28.79-38.07,51.63-3.1,14.17-3.22,28.27,1.87,42.09A37,37,0,0,0,450.92,288a30.66,30.66,0,0,0,14.73,6.77c.6.09,1.45,0,1.66.67s-.61.89-1,1.28a85.7,85.7,0,0,0-10.57,13.5A55.72,55.72,0,0,0,448.38,355c3,12,10.19,20.62,22.38,24.43A42.42,42.42,0,0,0,487.93,381c10.54-1.06,19.67-5.09,26.79-13.06,6.52-7.3,10.06-16.16,12.71-25.39a137.49,137.49,0,0,0,4.94-34.46c.29-11.13-.2-22.25-.09-33.38C532.46,256,532.42,237.27,532.06,218.57ZM471,253.47A88,88,0,0,1,472,226.33c1.48-6.87,3.91-13.32,9-18.42a19.71,19.71,0,0,1,14.48-5.81c1.75,0,2.47.56,2.45,2.43-.08,8.27,0,16.54,0,24.81,0,7.95.07,15.9,0,23.85-.06,4.9-1,9.6-4,13.71a12.59,12.59,0,0,1-13.24,5.1c-3.25-.76-5.23-3-6.7-5.81C471.94,262.22,471.39,257.83,471,253.47Zm25.89,81.62a19,19,0,0,1-3.19,7.49c-2.64,3.58-6.41,4.29-10.42,3.47-3.77-.77-5.81-3.6-6.53-7.2a36.92,36.92,0,0,1,.6-16.06c1.92-7.83,6.39-14.19,11.4-20.26a54.56,54.56,0,0,1,8.16-8c.42-.32.84-1,1.47-.58s.33.92.33,1.41c0,4.19,0,8.39,0,14.12C498.79,317.05,498.78,326.14,496.86,335.09Z"/><path class="cls-2" d="M637.49,248.41a69.3,69.3,0,0,0,20.21-3.71c14.17-5.18,22.86-15.23,26.35-29.81a78.19,78.19,0,0,0,1.61-23.5,59.91,59.91,0,0,0-6.2-24c-7.65-14.84-25-19.92-38.46-15.68-10,3.14-17.13,9.77-22.93,18.1-6.3,9.06-10.1,19.26-13,29.8a132.29,132.29,0,0,0-4.34,37.06,166.2,166.2,0,0,0,.71,16.73c.92,11.29,3,22.3,7.35,32.82,3.08,7.44,7.17,14.17,13.41,19.45,10.07,8.52,21.9,11.14,34.65,9.71,10-1.13,18.69-5.62,26.19-12.35a3.4,3.4,0,0,0,1.12-3.73c-2.19-9-4.31-18.07-6.43-27.11-.82-3.5-.82-3.52-3.5-1.13-4.09,3.66-8.64,6.65-14,7.81-10.66,2.3-19.13-1.09-23.2-12.29-1.87-5.15-2-10.45-1.93-15.81C635.12,249,635.81,248.5,637.49,248.41Zm-3-33.42c.68-5.81,1.45-11.61,3.37-17.19,1.35-3.89,3.09-7.51,6.17-10.39,5.2-4.87,12-3.14,14.1,3.64a15.73,15.73,0,0,1,.73,5.38c0,8.91-4.88,15.55-13.62,18.8a31.22,31.22,0,0,1-8.53,2C634.48,217.37,634.19,217.22,634.45,215Z"/><path class="cls-2" d="M344.41,301.79c-1.56-6.05-1.24-12.26-1.47-18.41-.4-10.23.21-20.48.28-30.72.1-13.86.57-27.73,0-41.59-.06-1.36-.09-2.5-1.88-2.72A152.92,152.92,0,0,1,311,201c-2.05-.7-2.21-.57-2.2,1.53,0,13.68.06,27.36-.27,41-.26,10.62-.06,21.26,0,31.89a17.18,17.18,0,0,1-1.25,6.51,8.76,8.76,0,0,1-9.66,5.82c-5-.53-8.47-4.08-9.72-9.85a59.1,59.1,0,0,1-1.16-11.56c-.39-22.28.52-44.55.33-66.82a60.13,60.13,0,0,0-.25-6.29,2.39,2.39,0,0,0-1.71-2.22c-2.55-1-5.09-2-7.59-3.13-7.17-3.16-14.31-6.37-21.47-9.53-2.9-1.28-3-1.2-2.94,2.06,0,3.05.3,6.1.28,9.15-.06,8.53.09,17-.21,25.58-.31,9-.07,17.94-.07,26.92.14,10.3-.43,20.61.3,30.91a73.33,73.33,0,0,0,5.28,23.72c7,16.55,23.06,22.4,37.89,20.3,7.46-1.06,13.32-5.13,18-11,.38-.47.67-1.31,1.37-1.17s.72,1.11.84,1.75c.44,2.31.89,4.63,1.19,7a2,2,0,0,0,2.35,2.08q12.42-.06,24.84,0c1.53,0,2-.55,1.71-2.1C346.13,309.62,345.42,305.67,344.41,301.79Z"/><path class="cls-2" d="M792.53,198.07c-6.92-7.7-14.76-14.19-24.18-18.61-5.84-2.74-12-4.11-18.35-2.41-8.32,2.22-13.14,8.18-16,15.87-3.31,8.86-3.86,18.08-3,27.45,1.25,13.95,7.23,25.22,18.44,33.76,4.5,3.43,9.24,6.54,13.73,10,4.89,3.74,7.66,8.44,6.46,14.85a5.63,5.63,0,0,1-6,5,17.22,17.22,0,0,1-7.71-1.93c-7.77-3.66-14.21-9.12-20.21-15.14-1.2-1.2-1.6-1.06-2,.48q-3.64,13.15-7.38,26.27a3.17,3.17,0,0,0,.91,3.44,60.2,60.2,0,0,0,11.9,9.51c11.75,6.89,24.3,10.47,38,8.19,9.09-1.51,16.22-6,20.39-14.63,3.26-6.72,4.11-13.84,3.88-21.18a44.69,44.69,0,0,0-7.22-23.41c-4.93-7.56-11.67-13.39-18.68-18.93-3.4-2.67-7-5.08-10-8.27s-5.6-6.8-5.42-11.84a12.26,12.26,0,0,1,.37-3.54c.94-3.39,3.25-4.76,6.65-3.89a13.76,13.76,0,0,1,4.49,2.05c6.53,4.52,11.67,10.38,16.25,16.78,1.34,1.86,1.7,1.89,3,.1q5.25-7,11.15-13.55c1.37-1.52,1.29-2.64.2-4.16A144.64,144.64,0,0,0,792.53,198.07Z"/><path class="cls-2" d="M585.27,154.33a284.05,284.05,0,0,0-31.67,4.94,1.92,1.92,0,0,0-1.82,2.18c0,4.83-.16,9.66-.24,14.5-.32,18.26-.07,36.52-.35,54.78-.36,22.84,0,45.69-.51,68.54,0,4.64,0,9.29,0,13.94,0,2.34.11,2.47,2.52,2.42s4.58-.28,6.86-.31c7.58-.12,15.15,0,22.72-.34,1.73-.07,2.33-.6,2.34-2.33.07-7.32,0-14.63.26-21.95.38-11.89,0-23.79.4-35.69.39-11.64,0-23.28.36-34.93.37-12.91,0-25.83.44-38.75.19-6.1,0-12.22.11-18.33,0-2.35.2-4.69.27-7C587,154.81,586.62,154.2,585.27,154.33Z"/><path class="cls-2" d="M429.59,193.52c-.25,0-.51-.05-.76-.06-13.66-.62-23.88,5.32-31.39,16.42a53.45,53.45,0,0,0-4.68,9.21,3.44,3.44,0,0,1-.94-2.28c-.7-3.1-1.4-6.2-2-9.32-.28-1.43-.9-1.93-2.38-1.53-3.08.82-6.19,1.51-9.28,2.26a49.8,49.8,0,0,1-11.51,1.58c-2,0-2.46.76-2.46,2.61q.06,50.4,0,100.81c0,2.33.11,2.44,2.52,2.44h30.56c2.45,0,2.53-.1,2.53-2.63,0-6.81,0-13.62,0-20.43,0-6.11,0-12.22.16-18.32.23-8.33.43-16.67-.06-25-.69-11.84,3.89-19.94,16.07-22a27.86,27.86,0,0,1,11.2.45c1.35.33,2.09.07,2.16-1.43,0-.5.17-1,.23-1.5,1.17-8.89,2.32-17.79,3.51-26.67C433.58,194.36,433.35,194,429.59,193.52Z"/><path class="cls-2" d="M570.09,89.1a19.47,19.47,0,0,0-12.48,8.16c-6.55,9.06-8.09,19.22-5.31,29.93,1.27,4.92,4,9.06,9.27,10.57,7,2,13.16,0,18.17-5,6-6,8.49-13.43,8.46-21.8,0-7.24-1.58-12.6-5.38-17.1C579.51,89.94,575.27,88.14,570.09,89.1Z"/><path class="cls-2" d="M740.24,147.36c2.11-3,3.58-6.15,3.42-9.77a17.77,17.77,0,0,0-.88-6.14,43.65,43.65,0,0,0-11.29-17.21c-3.27-3.19-3.31-3.23-5.31.75q-10.7,21.21-20.52,42.84a2.59,2.59,0,0,0,.19,2.67c2.11,3.42,4.2,6.83,6.19,10.31.85,1.49,1.5,1.69,2.86.46,4.72-4.25,9.58-8.34,14.33-12.57C733.18,155.2,737.15,151.72,740.24,147.36Z"/><rect class="cls-2" x="-636.33" y="539.03" width="1920" height="1311.32"/><g class="cls-3"><rect class="cls-4" x="756.19" y="449.1" width="188.35" height="188.36" transform="translate(-150.07 411.39) rotate(-25.06)"/><rect class="cls-5" x="926.81" y="369.31" width="188.36" height="188.36" transform="translate(-100.2 476.16) rotate(-25.06)"/></g><rect class="cls-6" x="-636.33" y="539.03" width="1920" height="1311.32"/></svg>