<svg id="Capa_1" data-name="Capa 1" xmlns="http://www.w3.org/2000/svg" viewBox="0 0 100.34 180.87"><defs><style>.cls-1{fill:#006fba;}</style></defs><path class="cls-1" d="M63.23,174.63c-8.13,0-16.33.35-24.45,0-9.62-.42-9.75-8.77-10.67-15.89l-8-61.92L17.74,78.27l-2.36,2.36H86.19l-2.36-2.36L73.38,159.33c-.87,6.72-1.08,14.78-10.15,15.3-3,.17-3,4.88,0,4.71,8.38-.48,13.09-6.3,14.11-14.2l2.28-17.69,7.09-55,1.83-14.22a2.37,2.37,0,0,0-2.35-2.35H15.38c-1.15,0-2.52,1.09-2.35,2.35L19.69,130l3.93,30.5c1,7.41,1.83,15.32,10.23,18.13,4.56,1.53,10.27.75,15,.75h14.4C66.26,179.34,66.26,174.63,63.23,174.63Z"/><path class="cls-1" d="M97.64,77.89c-2.82-11.45-5.53-24.43-13.18-33.77S65.73,28.49,53.69,27.53c-13-1-26.22,4.7-35,14.27S6.9,65.52,3.82,77.89a2.38,2.38,0,0,0,2.27,3H95.37c3,0,3-4.71,0-4.71H6.09l2.27,3c2.72-10.92,5.1-23.76,12.47-32.65,7.93-9.57,20.4-15.26,32.86-14.25,11.23.91,21.72,7.44,28.37,16.41,6.31,8.51,8.56,20.41,11,30.49C93.82,82.08,98.37,80.83,97.64,77.89Z"/><path class="cls-1" d="M28.8,7.57h18L44.57,5.84,48.35,30c.47,3,5,1.72,4.54-1.25L49.11,4.59a2.37,2.37,0,0,0-2.27-1.73h-18c-3,0-3,4.71,0,4.71Z"/><path class="cls-1" d="M27.74,86.69l4.48,60c.22,3,4.93,3,4.71,0l-4.48-60c-.22-3-4.93-3-4.71,0Z"/><path class="cls-1" d="M35,155.43c3,0,3-4.71,0-4.71s-3,4.71,0,4.71Z"/></svg>