<svg id="Capa_1" data-name="Capa 1" xmlns="http://www.w3.org/2000/svg" viewBox="0 0 948.77 470.3"><defs><style>.cls-1{fill:#fff;}</style></defs><path class="cls-1" d="M921.75,226c3.27-3.66,3.38-5,.81-8.85-6.92-10.4-13.29-21.15-20.49-31.37-13.34-19-29.56-34.75-49.74-46.32-2.83-1.62-5.87-2.9-8.83-4.3-1.15-.54-1.82-1.2-1.63-2.62a49.58,49.58,0,0,0,0-11.16c-1.75-20.78-11.85-37.45-25.7-52.25-4.33-4.62-9.29-8.55-14.16-12.58-11.27-9.3-22.5-18.66-33.8-27.92-3.36-2.76-6.88-2-8.88,1.84-6,11.47-12,22.94-17.9,34.46-6.15,12-12.2,24-18.29,36.07-1.81,3.56-1.81,3.59-5.59,2a86.42,86.42,0,0,0-32.76-6.43,84,84,0,0,0-26.1,3.92c-1.6.5-2.7.66-2.57-1.58.09-1.67,0-3.35,0-5a72.12,72.12,0,0,0-.43-8.43c-2.06-18.18-9.29-33.84-22.91-46.21-13.18-12-28.81-17.24-46.62-15.9-20.62,1.55-36.77,11.51-49.22,27.38-12.31,15.69-17.64,34-18,53.85a81.21,81.21,0,0,0,.86,10.46c.18,1.68-.3,2.61-2.19,2.59-1.6,0-3.19.25-4.78.38a147.3,147.3,0,0,0-36.65,7.36c-15.37,5.32-29.77,12.51-42.4,22.92a5.13,5.13,0,0,1-4.44,1.1,77.18,77.18,0,0,0-19.33-.84c-12.13,1.12-23.7,4-34.49,9.77-3.34,1.79-6.36,4.26-10.16,5.14A90.54,90.54,0,0,1,347,166a163.18,163.18,0,0,1-25.76-1.33c-14.24-1.87-28.28-4.52-41.75-9.69-18-6.91-35.42-15.21-53.2-22.64a6.89,6.89,0,0,1-4.34-5c-3.7-12.81-8.83-24.92-16.52-35.95-8.89-12.74-20.13-22.71-34.14-29.23a129.54,129.54,0,0,0-63.71-12.31c-16.66,1-32.64,5-48.22,10.73C48.65,64.52,39,70.61,28.9,75.73a6.7,6.7,0,0,0-4.07,6.69q.08,148.89,0,297.76c0,5.06,1.63,6.67,6.74,6.67q48.58,0,97.18,0a91.88,91.88,0,0,0,11.62-.69A114.71,114.71,0,0,0,191.73,367a2.3,2.3,0,0,1,3.35.19,89.1,89.1,0,0,0,34.42,18.32c10.51,2.93,21.2,4.4,32.09,3.13,9.45-1.11,18.88-2.38,28.43-1.83.91.06,1.83,0,2.75,0H392c3.16,0,3.32.16,3.82,3.21a111.94,111.94,0,0,0,2.68,12c4.83,17.19,13.84,31.82,27.54,43.27,16.2,13.55,35.3,19.47,56.19,20a109.65,109.65,0,0,0,20.68-1.8A89.76,89.76,0,0,0,548,442.31c16-14,25.54-32.17,32-52.1,1.1-3.35,1-3.39,4.53-3.39h97.64c4,0,8.06,0,12.1-.38a97.6,97.6,0,0,0,32.28-8.66c9.12-4.14,17.82-9,25.21-15.92,1.1-1,2.08-1.47,3.54-.3a116.21,116.21,0,0,0,25.43,15.18,112.93,112.93,0,0,0,42,10c13.45.5,26.56-1.3,39.12-6.54,15.08-6.3,27.24-16,35.84-30a90.16,90.16,0,0,0,13.15-40c1.74-19.79-1-38.74-10.23-56.51-1.07-2.07-.67-3.49.87-5.06C908.58,241.37,915,233.52,921.75,226Zm-32.32,20.64a5.54,5.54,0,0,0-.65,7c9.7,16.11,12.87,33.74,11.84,52.22-.83,14.7-4.71,28.55-13.27,40.76A65.47,65.47,0,0,1,849.86,373c-17.37,4.67-34.71,3.68-51.9-1.21-15.29-4.35-28.64-12.26-40.83-22.28-2.64-2.17-5.15-2.08-7.7.33a94.43,94.43,0,0,1-47.84,24.74,92,92,0,0,1-17.27,1.58q-52.37.09-104.72,0c-6,0-6.88.76-8.4,6.45-4.45,16.64-11.67,31.89-23.11,44.9-12.35,14.05-28.07,22.14-46.37,25.47a88.29,88.29,0,0,1-16.79,1.69c-20.68-.25-39.52-5.68-55-20.31-14.63-13.84-22.06-31.08-24.55-50.74-.12-1-.24-2-.42-2.94a5,5,0,0,0-5-4.46c-.92-.05-1.83,0-2.75,0q-60.36,0-120.72,0a48.52,48.52,0,0,0-7.71.75c-24.39,4-46.42-1.41-65.82-16.88-1.79-1.42-3.42-3-5.08-4.6-2.64-2.49-4.72-2.64-7.73-.54s-6.11,4.3-9.25,6.31c-12.43,7.95-26.15,12.2-40.7,14.07a138.86,138.86,0,0,1-18,.93q-41.61-.06-83.23,0c-4,0-4,0-4-3.89Q35,301.2,35,230T35,87.86c0-2.76.85-4.21,3.33-5.41,10-4.83,19.66-10.38,30.25-14A150,150,0,0,1,101.25,61a122.21,122.21,0,0,1,55.15,6.3c20.81,7.48,36.73,20.59,46.68,40.62,3.94,7.95,7.48,16,9.59,24.65a11.38,11.38,0,0,0,7.22,8.52c18.22,8,36.45,15.9,54.83,23.48,12.27,5.06,25.2,7.67,38.26,9.65a182.61,182.61,0,0,0,32.78,2.29,98.38,98.38,0,0,0,23.7-3.31,35.11,35.11,0,0,0,8.23-3.91,77.55,77.55,0,0,1,32.42-10.19,63.6,63.6,0,0,1,21.31,1.5,5.53,5.53,0,0,0,5.27-1.27,128.66,128.66,0,0,1,43.25-24.09,142.18,142.18,0,0,1,36.53-6.76c3-.15,5.93-.35,8.9-.36,3.68,0,5.54-1.86,5.79-5.6.19-2.85-.72-5.57-1-8.37-2.34-21.74,2.49-41.49,16.44-58.6,10.62-13,24.34-20.63,41.25-21.61s31.29,5,42.59,17.93c10.56,12,14.83,26.33,15.11,42.06a73,73,0,0,1-.83,13.2,11.81,11.81,0,0,0-.06,3.41c.48,3.63,4.08,5.33,8,3.64A82.69,82.69,0,0,1,667.74,109a75.58,75.58,0,0,1,49.68,5.59c1,.48,2.05,1,3.07,1.53,3.87,1.89,6.82.85,8.58-3.07q4.83-10.74,10.25-21.18c8.47-16.37,17-32.71,25.41-49.1,1-2,1.82-2,3.37-.67,8.53,7.13,17.06,14.25,25.67,21.28a163,163,0,0,1,14.89,13.14c11.45,11.91,19.7,25.53,22.24,42.13a54,54,0,0,1,.07,16.6c-.76,4.93.16,6.29,4.74,8.12A112.45,112.45,0,0,1,866.43,162a159.78,159.78,0,0,1,30.13,34.14c5,7.47,9.76,15.09,14.68,22.6,1.26,1.92.44,3.13-.79,4.38-3.59,3.63-7,7.47-10.31,11.31C896.59,238.53,893,242.55,889.43,246.63Z"/><path class="cls-1" d="M188.58,241.17C184,228.46,176.74,217.69,165.41,210c-1.41-1-1.29-1.65.11-2.45,8.33-4.78,12.83-12.34,15.33-21.3,2.75-9.85,2.63-19.88,1.41-29.91-1.56-12.86-5.14-25-13.1-35.58a58.81,58.81,0,0,0-30.24-21.41C129.5,96.42,119.77,95.94,110,96A86.71,86.71,0,0,0,75.25,104c-2.63,1.17-3.32,2.69-3.31,5.4q.12,56.78,0,113.57,0,57.25,0,114.49c0,3.15.07,3.22,3.18,3.22h53.5a70.49,70.49,0,0,0,25-4.71c19.68-7.42,30.75-22.36,36.29-42,2.89-10.25,3.19-20.75,2.71-31.28A72.55,72.55,0,0,0,188.58,241.17Zm-77.26-78.62V141.08c0-2.8.15-3,3-2.93,4.79.13,9.6.13,14.22,1.66a16.08,16.08,0,0,1,9.88,8.34c4.53,9.63,5.2,19.65,1.3,29.67-2.93,7.51-9.51,9.59-15.72,9.46-3.26-.07-6.54-.28-9.8-.23-2.09,0-2.83-.75-2.8-2.81.07-7.23,0-14.46,0-21.69Zm36.76,109.69c-2.12,9.87-8.58,14.85-19.66,15.28-4.57.17-9.15,0-13.72.06-1.8,0-2.39-.81-2.38-2.51,0-6,0-12,0-18.05.25-10.67-.58-21.32-.47-32,0-3,.19-3.2,3.07-3.17,4.72,0,9.43-.1,14.15.27,9.55.74,15.88,7.08,18.36,15.68A49.51,49.51,0,0,1,148.08,272.24Z"/><path class="cls-1" d="M543.63,224.42c-.14-7.39,0-14.78,0-22.16,0-11.2,0-22.4,0-33.59,0-2-.68-2.81-2.62-3.25a76.34,76.34,0,0,0-23.84-1.31c-14.36,1.24-28.13,4.63-40.76,11.69-24.49,13.69-39.57,34.45-45.56,61.79-3.72,17-3.86,33.85,2.23,50.39a44.38,44.38,0,0,0,13.42,19.53,36.59,36.59,0,0,0,17.64,8.1c.71.11,1.73,0,2,.81s-.72,1.06-1.17,1.53a102.93,102.93,0,0,0-12.66,16.16c-10.59,16.63-13.48,34.64-8.81,53.65,3.54,14.41,12.19,24.68,26.78,29.24a51,51,0,0,0,20.55,1.81c12.61-1.28,23.54-6.1,32.07-15.65,7.8-8.72,12-19.34,15.21-30.38A164.77,164.77,0,0,0,544,331.53c.35-13.32-.23-26.63-.11-39.95Q544.22,258,543.63,224.42Zm-73.12,41.77c-1.06-10.87-1-21.74,1.28-32.48,1.77-8.23,4.68-15.94,10.78-22.05a23.61,23.61,0,0,1,17.33-7c2.08,0,3,.68,2.93,2.92-.1,9.9,0,19.79,0,29.69,0,9.52.08,19,0,28.55-.07,5.86-1.22,11.48-4.74,16.41a15.07,15.07,0,0,1-15.84,6.1c-3.89-.91-6.27-3.6-8-6.95C471.67,276.66,471,271.41,470.51,266.19Zm31,97.7a22.86,22.86,0,0,1-3.82,9c-3.15,4.27-7.67,5.12-12.47,4.15-4.51-.92-7-4.32-7.81-8.63a44,44,0,0,1,.71-19.22c2.29-9.36,7.64-17,13.65-24.24a64.4,64.4,0,0,1,9.76-9.56c.5-.4,1-1.14,1.77-.71.6.35.38,1.11.39,1.69,0,5,0,10.05,0,16.9C503.81,342.29,503.79,353.17,501.5,363.89Z"/><path class="cls-1" d="M669.83,260.13c8.24-.45,16.37-1.58,24.18-4.43,17-6.2,27.37-18.24,31.55-35.68a93.85,93.85,0,0,0,1.92-28.13c-.65-10.09-2.76-19.67-7.43-28.73-9.14-17.76-29.92-23.84-46-18.77-11.92,3.76-20.5,11.69-27.44,21.67-7.54,10.85-12.09,23.05-15.52,35.66a158,158,0,0,0-5.2,44.37,200.23,200.23,0,0,0,.85,20c1.1,13.51,3.57,26.7,8.79,39.28,3.7,8.91,8.59,17,16,23.28,12.06,10.2,26.22,13.33,41.48,11.62,12-1.34,22.37-6.72,31.35-14.78a4,4,0,0,0,1.34-4.46c-2.62-10.81-5.16-21.63-7.7-32.45-1-4.19-1-4.22-4.18-1.35-4.91,4.37-10.34,8-16.8,9.35-12.76,2.75-22.9-1.31-27.77-14.71-2.24-6.17-2.36-12.51-2.3-18.93C667,260.87,667.81,260.24,669.83,260.13Zm-3.65-40c.81-6.95,1.74-13.89,4-20.57,1.61-4.66,3.69-9,7.38-12.43,6.23-5.83,14.38-3.77,16.88,4.35a19.07,19.07,0,0,1,.88,6.44c0,10.66-5.85,18.61-16.31,22.5a37.63,37.63,0,0,1-10.21,2.36C666.22,223,665.87,222.81,666.18,220.13Z"/><path class="cls-1" d="M319,324c-1.88-7.25-1.49-14.68-1.77-22-.47-12.26.26-24.52.35-36.77.12-16.6.67-33.19.05-49.79-.06-1.63-.1-3-2.25-3.25-12.46-1.52-24.5-4.8-36.37-8.81-2.45-.83-2.65-.69-2.64,1.83,0,16.38.08,32.75-.32,49.12-.31,12.72-.07,25.45,0,38.17a20.54,20.54,0,0,1-1.5,7.8,10.5,10.5,0,0,1-11.56,7c-5.93-.63-10.14-4.89-11.64-11.79A70.76,70.76,0,0,1,250,281.63c-.47-26.66.62-53.31.39-80a72.92,72.92,0,0,0-.3-7.53,2.85,2.85,0,0,0-2-2.66c-3.05-1.19-6.08-2.43-9.08-3.75-8.58-3.78-17.12-7.62-25.7-11.4-3.46-1.53-3.59-1.44-3.52,2.47.07,3.65.37,7.3.34,11-.07,10.2.1,20.4-.25,30.61-.37,10.72-.08,21.48-.08,32.22.17,12.33-.52,24.67.35,37,.7,9.79,2.46,19.3,6.33,28.39,8.41,19.81,27.59,26.81,45.34,24.3,8.93-1.27,15.95-6.14,21.53-13.14.45-.57.79-1.57,1.63-1.41,1,.2.87,1.33,1,2.1.53,2.77,1.07,5.54,1.43,8.33.23,1.78,1,2.5,2.81,2.49q14.86-.08,29.72,0c1.84,0,2.4-.65,2.06-2.5C321.08,333.4,320.23,328.68,319,324Z"/><path class="cls-1" d="M855.4,199.88c-8.28-9.21-17.68-17-28.95-22.27-7-3.28-14.3-4.93-22-2.88-10,2.65-15.72,9.78-19.16,19-4,10.62-4.63,21.65-3.62,32.86,1.49,16.7,8.65,30.19,22.06,40.41,5.39,4.11,11.06,7.83,16.44,11.95,5.84,4.49,9.17,10.11,7.73,17.79-.73,3.9-3.17,5.94-7.14,6a20.49,20.49,0,0,1-9.22-2.3c-9.31-4.39-17-10.93-24.2-18.12-1.43-1.44-1.91-1.28-2.42.57q-4.37,15.74-8.84,31.44a3.79,3.79,0,0,0,1.09,4.12,72.22,72.22,0,0,0,14.24,11.38c14.07,8.25,29.09,12.54,45.48,9.81,10.88-1.82,19.41-7.23,24.4-17.52,3.9-8,4.92-16.56,4.64-25.34a53.46,53.46,0,0,0-8.63-28c-5.91-9.05-14-16-22.37-22.65-4.06-3.2-8.4-6.09-11.94-9.91s-6.7-8.14-6.49-14.16a15.11,15.11,0,0,1,.44-4.24c1.14-4.06,3.9-5.7,8-4.66a16.38,16.38,0,0,1,5.37,2.46c7.82,5.4,14,12.42,19.45,20.07,1.6,2.23,2,2.28,3.63.13q6.29-8.43,13.34-16.22c1.65-1.82,1.55-3.16.25-5A171.43,171.43,0,0,0,855.4,199.88Z"/><path class="cls-1" d="M607.32,147.53a341.39,341.39,0,0,0-37.91,5.91c-1.54.33-2.18,1-2.17,2.61,0,5.78-.19,11.57-.29,17.35-.39,21.86-.08,43.72-.42,65.58-.43,27.34,0,54.69-.62,82,0,5.56,0,11.12,0,16.68,0,2.81.14,3,3,2.9s5.47-.33,8.21-.37c9.06-.14,18.13,0,27.19-.4,2.07-.09,2.79-.72,2.81-2.8.07-8.75,0-17.51.3-26.26.46-14.24,0-28.48.48-42.73.46-13.92,0-27.86.43-41.8.44-15.45,0-30.92.53-46.38.22-7.31.06-14.62.13-21.94,0-2.81.23-5.62.33-8.44C609.39,148.11,608.93,147.37,607.32,147.53Z"/><path class="cls-1" d="M421,194.43c-.3,0-.6-.06-.91-.07-16.34-.74-28.58,6.37-37.57,19.66a64.08,64.08,0,0,0-5.61,11,4.11,4.11,0,0,1-1.12-2.72c-.84-3.72-1.67-7.43-2.41-11.17-.34-1.7-1.08-2.3-2.86-1.82-3.68,1-7.4,1.8-11.1,2.7a60,60,0,0,1-13.78,1.9c-2.36,0-2.95.9-2.94,3.12q.07,60.33,0,120.65c0,2.8.14,2.93,3,2.93h36.58c2.93,0,3-.11,3-3.15,0-8.15-.05-16.3,0-24.45,0-7.31,0-14.62.2-21.93.27-10,.52-20-.07-29.91-.83-14.17,4.65-23.86,19.23-26.35a33.12,33.12,0,0,1,13.4.53c1.62.39,2.51.08,2.59-1.71,0-.6.2-1.2.28-1.8,1.4-10.64,2.77-21.28,4.2-31.92C425.76,195.44,425.48,195,421,194.43Z"/><path class="cls-1" d="M589.15,69.45a23.39,23.39,0,0,0-14.94,9.77c-7.83,10.85-9.68,23-6.35,35.82,1.52,5.89,4.84,10.85,11.09,12.66,8.37,2.41,15.75,0,21.76-6,7.11-7.15,10.16-16.08,10.11-26.1,0-8.66-1.88-15.07-6.43-20.46C600.43,70.46,595.35,68.31,589.15,69.45Z"/><path class="cls-1" d="M792.8,139.19c2.53-3.57,4.29-7.36,4.11-11.7a21.4,21.4,0,0,0-1.06-7.34,52.34,52.34,0,0,0-13.52-20.61c-3.91-3.81-4-3.87-6.36.9q-12.79,25.4-24.55,51.28a3.1,3.1,0,0,0,.23,3.2c2.52,4.08,5,8.17,7.4,12.33,1,1.78,1.8,2,3.43.56,5.65-5.09,11.47-10,17.15-15.05C784.35,148.57,789.11,144.4,792.8,139.19Z"/></svg>